<?xml version="1.0" encoding="UTF-8"?>
<svg id="_レイヤー_1" data-name="レイヤー_1" xmlns="http://www.w3.org/2000/svg" version="1.1" viewBox="0 0 595.28 841.89">
  <!-- Generator: Adobe Illustrator 30.3.0, SVG Export Plug-In . SVG Version: 2.1.3 Build 182)  -->
  <defs>
    <style>
      .st0 {
        fill: #231815;
      }
    </style>
  </defs>
  <g>
    <g>
      <polygon class="st0" points="137.69 372.35 175.87 372.35 175.87 381.95 162.95 381.95 162.95 421.79 150.59 421.79 150.59 381.95 137.69 381.95 137.69 372.35"/>
      <path class="st0" d="M188.17,407c4.31,3.92,8.38,6.18,14.32,6.18,3.26,0,9.22-1.39,9.22-5.71,0-2.47-1.88-3.74-5.55-4.34l-10.28-1.7c-9.17-1.43-14.15-6.32-14.15-13.61,0-11.94,9.63-16.86,20.18-16.86,8.22,0,16.27,3.33,21.82,9.52l-9.37,6.73c-3.26-3.95-8.06-6.26-13.27-6.26-2.85,0-7,1.81-7,4.99,0,2.65,2.11,3.98,6.85,4.76l4.72.75c9.86,1.58,17.99,4.65,17.99,14.1,0,14.85-13.41,17.65-22.64,17.65-8.39,0-15.55-2.7-22.29-10.08l9.45-6.12Z"/>
      <path class="st0" d="M274.69,404.54c0,13.6-11.45,18.65-20.98,18.65s-20.88-5.05-20.88-18.65v-32.2h12.36v31.18c0,5.55,2.16,9.64,8.53,9.64s8.61-4.09,8.61-9.64v-31.18h12.37v32.2Z"/>
      <polygon class="st0" points="282.18 372.35 320.37 372.35 320.37 381.95 307.49 381.95 307.49 421.79 295.1 421.79 295.1 381.95 282.18 381.95 282.18 372.35"/>
      <path class="st0" d="M337.15,372.35h12.79l18.67,49.44h-13.26l-2.48-7.79h-18.29l-2.5,7.79h-13.2l18.27-49.44ZM349.85,404.86l-6.09-20.44h-.15l-6.11,20.44h12.35Z"/>
      <polygon class="st0" points="381.16 398.71 362.39 372.35 376.86 372.35 387.34 389.44 397.82 372.35 412.27 372.35 393.52 398.71 393.52 421.79 381.16 421.79 381.16 398.71"/>
      <path class="st0" d="M425.03,372.35h12.79l18.66,49.44h-13.23l-2.54-7.79h-18.27l-2.46,7.79h-13.2l18.24-49.44ZM437.73,404.86l-6.08-20.44h-.13l-6.15,20.44h12.36Z"/>
    </g>
    <g>
      <path class="st0" d="M137.68,436.21h17.13c7.09,0,11.86,2.46,11.86,9.01,0,4.48-2.56,6.84-7.33,7.92v.1c4.77.34,8.61,2.85,8.61,8.02,0,7.23-5.41,9.99-14.32,9.99h-15.95v-35.04ZM146.04,449.99h7.28c2.81,0,4.58-1.08,4.58-3.64,0-2.95-1.67-3.64-4.58-3.64h-7.28v7.28ZM146.14,464.75h7.14c4.63,0,5.91-1.82,5.91-4.09,0-2.9-1.08-4.18-4.33-4.18h-8.71v8.27Z"/>
      <path class="st0" d="M189.2,472.23c-11.17,0-17.72-8.66-17.72-18.5s6.55-18.5,17.72-18.5,17.72,8.66,17.72,18.5-6.55,18.5-17.72,18.5M189.2,442.61c-5.12,0-8.96,3.25-8.96,11.12,0,5.12,2.07,11.12,8.96,11.12,6.5,0,8.96-5.71,8.96-11.12s-2.46-11.12-8.96-11.12"/>
      <path class="st0" d="M228.41,472.23c-11.17,0-17.72-8.66-17.72-18.5s6.55-18.5,17.72-18.5,17.72,8.66,17.72,18.5-6.55,18.5-17.72,18.5M228.41,442.61c-5.12,0-8.96,3.25-8.96,11.12,0,5.12,2.07,11.12,8.96,11.12,6.5,0,8.96-5.71,8.96-11.12s-2.46-11.12-8.96-11.12"/>
      <polygon class="st0" points="250.99 436.21 259.74 436.21 259.74 450.19 272.29 436.21 283.91 436.21 271.16 449.5 284.3 471.25 274.56 471.25 265.01 455.7 259.74 461.06 259.74 471.25 250.99 471.25 250.99 436.21"/>
      <path class="st0" d="M294.01,460.77c3.05,2.76,5.96,4.38,10.14,4.38,2.31,0,6.55-.98,6.55-4.03,0-1.77-1.33-2.66-3.94-3.1l-7.28-1.18c-6.5-1.03-10.04-4.48-10.04-9.65,0-8.46,6.84-11.96,14.32-11.96,5.81,0,11.52,2.36,15.45,6.74l-6.64,4.77c-2.31-2.81-5.71-4.43-9.4-4.43-2.02,0-4.97,1.28-4.97,3.54,0,1.87,1.53,2.81,4.87,3.35l3.35.54c6.99,1.13,12.75,3.3,12.75,9.99,0,10.53-9.5,12.5-16.04,12.5-5.96,0-11.02-1.92-15.8-7.14l6.69-4.33Z"/>
      <polygon class="st0" points="323.3 436.21 350.36 436.21 350.36 443 341.21 443 341.21 471.25 332.45 471.25 332.45 443 323.3 443 323.3 436.21"/>
      <path class="st0" d="M370.35,472.23c-11.17,0-17.72-8.66-17.72-18.5s6.55-18.5,17.72-18.5,17.72,8.66,17.72,18.5-6.55,18.5-17.72,18.5M370.35,442.61c-5.12,0-8.96,3.25-8.96,11.12,0,5.12,2.07,11.12,8.96,11.12,6.5,0,8.96-5.71,8.96-11.12s-2.46-11.12-8.96-11.12"/>
      <path class="st0" d="M392.69,436.21h17.52c7.87,0,12.7,3.64,12.7,11.52,0,4.53-2.85,8.17-7.23,9.45l8.02,14.07h-9.79l-6.89-12.6h-5.56v12.6h-8.76v-35.04ZM401.45,452.15h8.02c2.81-.05,4.67-1.48,4.67-4.72s-1.87-4.67-4.67-4.72h-8.02v9.45Z"/>
      <polygon class="st0" points="427.73 471.25 427.73 436.21 453.52 436.21 453.52 443 436.49 443 436.49 449.4 452.39 449.4 452.39 456.19 436.49 456.19 436.49 464.46 454.99 464.46 454.99 471.25 427.73 471.25"/>
    </g>
  </g>
  <g>
    <g>
      <polygon class="st0" points="47.34 174.32 71.38 174.32 71.38 180.37 63.25 180.37 63.25 205.46 55.46 205.46 55.46 180.37 47.34 180.37 47.34 174.32"/>
      <path class="st0" d="M79.13,196.14c2.71,2.47,5.28,3.89,9.02,3.89,2.05,0,5.81-.88,5.81-3.6,0-1.56-1.18-2.35-3.5-2.73l-6.48-1.07c-5.78-.9-8.91-3.98-8.91-8.57,0-7.52,6.07-10.62,12.71-10.62,5.18,0,10.25,2.1,13.74,6l-5.9,4.24c-2.05-2.48-5.07-3.95-8.36-3.95-1.8,0-4.41,1.14-4.41,3.15,0,1.67,1.33,2.51,4.32,3l2.97.47c6.21,1,11.33,2.93,11.33,8.88,0,9.35-8.44,11.11-14.26,11.11-5.28,0-9.79-1.7-14.04-6.35l5.95-3.85Z"/>
      <path class="st0" d="M133.62,194.6c0,8.57-7.21,11.75-13.21,11.75s-13.15-3.18-13.15-11.75v-20.28h7.78v19.64c0,3.5,1.36,6.07,5.37,6.07s5.42-2.58,5.42-6.07v-19.64h7.79v20.28Z"/>
      <polygon class="st0" points="138.34 174.32 162.39 174.32 162.39 180.37 154.28 180.37 154.28 205.46 146.48 205.46 146.48 180.37 138.34 180.37 138.34 174.32"/>
      <path class="st0" d="M172.96,174.32h8.06l11.76,31.14h-8.35l-1.56-4.91h-11.52l-1.58,4.91h-8.31l11.51-31.14ZM180.96,194.8l-3.84-12.87h-.1l-3.85,12.87h7.78Z"/>
      <polygon class="st0" points="200.67 190.93 188.86 174.32 197.97 174.32 204.57 185.08 211.17 174.32 220.27 174.32 208.46 190.93 208.46 205.46 200.67 205.46 200.67 190.93"/>
      <path class="st0" d="M228.31,174.32h8.06l11.75,31.14h-8.33l-1.6-4.91h-11.51l-1.55,4.91h-8.31l11.49-31.14ZM236.31,194.8l-3.83-12.87h-.08l-3.87,12.87h7.78Z"/>
    </g>
    <g>
      <path class="st0" d="M265.52,174.32h15.22c6.3,0,10.54,2.19,10.54,8,0,3.98-2.27,6.08-6.52,7.04v.09c4.24.31,7.65,2.54,7.65,7.13,0,6.43-4.81,8.88-12.73,8.88h-14.17v-31.14ZM272.95,186.57h6.47c2.49,0,4.07-.96,4.07-3.24,0-2.62-1.49-3.24-4.07-3.24h-6.47v6.47ZM273.04,199.69h6.34c4.11,0,5.25-1.62,5.25-3.63,0-2.58-.96-3.72-3.85-3.72h-7.74v7.35Z"/>
      <path class="st0" d="M311.31,206.34c-9.93,0-15.74-7.7-15.74-16.44s5.82-16.45,15.74-16.45,15.75,7.7,15.75,16.45-5.82,16.44-15.75,16.44M311.31,180.01c-4.55,0-7.96,2.89-7.96,9.89,0,4.55,1.84,9.88,7.96,9.88,5.77,0,7.96-5.07,7.96-9.88s-2.19-9.89-7.96-9.89"/>
      <path class="st0" d="M346.16,206.34c-9.93,0-15.75-7.7-15.75-16.44s5.82-16.45,15.75-16.45,15.74,7.7,15.74,16.45-5.82,16.44-15.74,16.44M346.16,180.01c-4.55,0-7.96,2.89-7.96,9.89,0,4.55,1.84,9.88,7.96,9.88,5.77,0,7.96-5.07,7.96-9.88s-2.19-9.89-7.96-9.89"/>
      <polygon class="st0" points="366.22 174.32 374 174.32 374 186.74 385.15 174.32 395.47 174.32 384.15 186.13 395.82 205.46 387.16 205.46 378.68 191.64 374 196.41 374 205.46 366.22 205.46 366.22 174.32"/>
      <path class="st0" d="M404.46,196.15c2.71,2.45,5.29,3.89,9.01,3.89,2.05,0,5.82-.87,5.82-3.59,0-1.57-1.18-2.36-3.5-2.76l-6.47-1.05c-5.77-.92-8.92-3.98-8.92-8.57,0-7.52,6.08-10.63,12.73-10.63,5.16,0,10.24,2.1,13.73,5.99l-5.9,4.24c-2.05-2.49-5.07-3.94-8.35-3.94-1.79,0-4.42,1.14-4.42,3.15,0,1.66,1.36,2.49,4.33,2.97l2.97.48c6.21,1.01,11.33,2.93,11.33,8.88,0,9.36-8.44,11.11-14.26,11.11-5.29,0-9.8-1.71-14.04-6.34l5.95-3.85Z"/>
      <polygon class="st0" points="430.48 174.32 454.53 174.32 454.53 180.36 446.4 180.36 446.4 205.46 438.61 205.46 438.61 180.36 430.48 180.36 430.48 174.32"/>
      <path class="st0" d="M472.29,206.34c-9.93,0-15.75-7.7-15.75-16.44s5.82-16.45,15.75-16.45,15.75,7.7,15.75,16.45-5.82,16.44-15.75,16.44M472.29,180.01c-4.55,0-7.96,2.89-7.96,9.89,0,4.55,1.84,9.88,7.96,9.88,5.77,0,7.96-5.07,7.96-9.88s-2.19-9.89-7.96-9.89"/>
      <path class="st0" d="M492.15,174.32h15.57c7,0,11.28,3.24,11.28,10.23,0,4.02-2.54,7.26-6.43,8.4l7.13,12.51h-8.7l-6.12-11.2h-4.94v11.2h-7.79v-31.14ZM499.94,188.49h7.13c2.49-.04,4.15-1.31,4.15-4.2s-1.66-4.15-4.15-4.2h-7.13v8.4Z"/>
      <polygon class="st0" points="523.29 205.46 523.29 174.32 546.2 174.32 546.2 180.36 531.07 180.36 531.07 186.04 545.2 186.04 545.2 192.08 531.07 192.08 531.07 199.43 547.52 199.43 547.52 205.46 523.29 205.46"/>
    </g>
  </g>
</svg>