<?xml version="1.0" encoding="UTF-8"?>
<svg id="_圖層_2" data-name="圖層 2" xmlns="http://www.w3.org/2000/svg" viewBox="0 0 318.8 101.27">
  <defs>
    <style>
      .cls-1 {
        fill: #231815;
      }
    </style>
  </defs>
  <g id="_レイヤー_1" data-name=" レイヤー 1">
    <g>
      <g>
        <polygon class="cls-1" points=".01 1.39 38.19 1.39 38.19 10.99 25.27 10.99 25.27 50.83 12.91 50.83 12.91 10.99 .01 10.99 .01 1.39"/>
        <path class="cls-1" d="M50.49,36.04c4.31,3.92,8.38,6.18,14.32,6.18,3.26,0,9.22-1.39,9.22-5.71,0-2.47-1.88-3.74-5.55-4.34l-10.28-1.7c-9.17-1.43-14.15-6.32-14.15-13.61C44.05,4.92,53.68,0,64.23,0c8.22,0,16.27,3.33,21.82,9.52l-9.37,6.73c-3.26-3.95-8.06-6.26-13.27-6.26-2.85,0-7,1.81-7,4.99,0,2.65,2.11,3.98,6.85,4.76l4.72.75c9.86,1.58,17.99,4.65,17.99,14.1,0,14.85-13.41,17.65-22.64,17.65-8.39,0-15.55-2.7-22.29-10.08l9.45-6.12h0Z"/>
        <path class="cls-1" d="M137.01,33.58c0,13.6-11.45,18.65-20.98,18.65s-20.88-5.05-20.88-18.65V1.38h12.36v31.18c0,5.55,2.16,9.64,8.53,9.64s8.61-4.09,8.61-9.64V1.38h12.37v32.2h0Z"/>
        <polygon class="cls-1" points="144.5 1.39 182.69 1.39 182.69 10.99 169.81 10.99 169.81 50.83 157.42 50.83 157.42 10.99 144.5 10.99 144.5 1.39"/>
        <path class="cls-1" d="M199.47,1.39h12.79l18.67,49.44h-13.26l-2.48-7.79h-18.29l-2.5,7.79h-13.2L199.47,1.39h0ZM212.17,33.9l-6.09-20.44h-.15l-6.11,20.44h12.35,0Z"/>
        <polygon class="cls-1" points="243.48 27.75 224.71 1.39 239.18 1.39 249.66 18.48 260.14 1.39 274.59 1.39 255.84 27.75 255.84 50.83 243.48 50.83 243.48 27.75"/>
        <path class="cls-1" d="M287.35,1.39h12.79l18.66,49.44h-13.23l-2.54-7.79h-18.27l-2.46,7.79h-13.2L287.34,1.39h.01ZM300.05,33.9l-6.08-20.44h-.13l-6.15,20.44h12.36Z"/>
      </g>
      <g>
        <path class="cls-1" d="M0,65.25h17.13c7.09,0,11.86,2.46,11.86,9.01,0,4.48-2.56,6.84-7.33,7.92v.1c4.77.34,8.61,2.85,8.61,8.02,0,7.23-5.41,9.99-14.32,9.99H0v-35.04h0ZM8.36,79.03h7.28c2.81,0,4.58-1.08,4.58-3.64,0-2.95-1.67-3.64-4.58-3.64h-7.28v7.28h0ZM8.46,93.79h7.14c4.63,0,5.91-1.82,5.91-4.09,0-2.9-1.08-4.18-4.33-4.18h-8.71v8.27h0Z"/>
        <path class="cls-1" d="M51.52,101.27c-11.17,0-17.72-8.66-17.72-18.5s6.55-18.5,17.72-18.5,17.72,8.66,17.72,18.5-6.55,18.5-17.72,18.5M51.52,71.65c-5.12,0-8.96,3.25-8.96,11.12,0,5.12,2.07,11.12,8.96,11.12,6.5,0,8.96-5.71,8.96-11.12s-2.46-11.12-8.96-11.12"/>
        <path class="cls-1" d="M90.73,101.27c-11.17,0-17.72-8.66-17.72-18.5s6.55-18.5,17.72-18.5,17.72,8.66,17.72,18.5-6.55,18.5-17.72,18.5M90.73,71.65c-5.12,0-8.96,3.25-8.96,11.12,0,5.12,2.07,11.12,8.96,11.12,6.5,0,8.96-5.71,8.96-11.12s-2.46-11.12-8.96-11.12"/>
        <polygon class="cls-1" points="113.31 65.25 122.06 65.25 122.06 79.23 134.61 65.25 146.23 65.25 133.48 78.54 146.62 100.29 136.88 100.29 127.33 84.74 122.06 90.1 122.06 100.29 113.31 100.29 113.31 65.25"/>
        <path class="cls-1" d="M156.33,89.81c3.05,2.76,5.96,4.38,10.14,4.38,2.31,0,6.55-.98,6.55-4.03,0-1.77-1.33-2.66-3.94-3.1l-7.28-1.18c-6.5-1.03-10.04-4.48-10.04-9.65,0-8.46,6.84-11.96,14.32-11.96,5.81,0,11.52,2.36,15.45,6.74l-6.64,4.77c-2.31-2.81-5.71-4.43-9.4-4.43-2.02,0-4.97,1.28-4.97,3.54,0,1.87,1.53,2.81,4.87,3.35l3.35.54c6.99,1.13,12.75,3.3,12.75,9.99,0,10.53-9.5,12.5-16.04,12.5-5.96,0-11.02-1.92-15.8-7.14l6.69-4.33h-.01Z"/>
        <polygon class="cls-1" points="185.62 65.25 212.68 65.25 212.68 72.04 203.53 72.04 203.53 100.29 194.77 100.29 194.77 72.04 185.62 72.04 185.62 65.25"/>
        <path class="cls-1" d="M232.67,101.27c-11.17,0-17.72-8.66-17.72-18.5s6.55-18.5,17.72-18.5,17.72,8.66,17.72,18.5-6.55,18.5-17.72,18.5M232.67,71.65c-5.12,0-8.96,3.25-8.96,11.12,0,5.12,2.07,11.12,8.96,11.12,6.5,0,8.96-5.71,8.96-11.12s-2.46-11.12-8.96-11.12"/>
        <path class="cls-1" d="M255.01,65.25h17.52c7.87,0,12.7,3.64,12.7,11.52,0,4.53-2.85,8.17-7.23,9.45l8.02,14.07h-9.79l-6.89-12.6h-5.56v12.6h-8.76v-35.04h0ZM263.77,81.19h8.02c2.81-.05,4.67-1.48,4.67-4.72s-1.87-4.67-4.67-4.72h-8.02v9.45h0Z"/>
        <polygon class="cls-1" points="290.05 100.29 290.05 65.25 315.84 65.25 315.84 72.04 298.81 72.04 298.81 78.44 314.71 78.44 314.71 85.23 298.81 85.23 298.81 93.5 317.31 93.5 317.31 100.29 290.05 100.29"/>
      </g>
    </g>
  </g>
</svg>