<?xml version="1.0" encoding="UTF-8"?>
<svg id="_圖層_2" data-name="圖層 2" xmlns="http://www.w3.org/2000/svg" viewBox="0 0 500.18 32.91">
  <defs>
    <style>
      .cls-1 {
        fill: #231815;
      }
    </style>
  </defs>
  <g id="_レイヤー_1" data-name=" レイヤー 1">
    <g>
      <g>
        <polygon class="cls-1" points="0 .88 24.04 .88 24.04 6.93 15.91 6.93 15.91 32.02 8.12 32.02 8.12 6.93 0 6.93 0 .88"/>
        <path class="cls-1" d="M31.79,22.7c2.71,2.47,5.28,3.89,9.02,3.89,2.05,0,5.81-.88,5.81-3.6,0-1.56-1.18-2.35-3.5-2.73l-6.48-1.07c-5.78-.9-8.91-3.98-8.91-8.57,0-7.52,6.07-10.62,12.71-10.62,5.18,0,10.25,2.1,13.74,6l-5.9,4.24c-2.05-2.48-5.07-3.95-8.36-3.95-1.8,0-4.41,1.14-4.41,3.15,0,1.67,1.33,2.51,4.32,3l2.97.47c6.21,1,11.33,2.93,11.33,8.88,0,9.35-8.44,11.11-14.26,11.11-5.28,0-9.79-1.7-14.04-6.35l5.95-3.85h.01Z"/>
        <path class="cls-1" d="M86.28,21.16c0,8.57-7.21,11.75-13.21,11.75s-13.15-3.18-13.15-11.75V.88h7.78v19.64c0,3.5,1.36,6.07,5.37,6.07s5.42-2.58,5.42-6.07V.88h7.79v20.28Z"/>
        <polygon class="cls-1" points="91 .88 115.05 .88 115.05 6.93 106.94 6.93 106.94 32.02 99.14 32.02 99.14 6.93 91 6.93 91 .88"/>
        <path class="cls-1" d="M125.62.88h8.06l11.76,31.14h-8.35l-1.56-4.91h-11.52l-1.58,4.91h-8.31L125.63.88h0ZM133.62,21.36l-3.84-12.87h-.1l-3.85,12.87h7.79Z"/>
        <polygon class="cls-1" points="153.33 17.49 141.52 .88 150.63 .88 157.23 11.64 163.83 .88 172.93 .88 161.12 17.49 161.12 32.02 153.33 32.02 153.33 17.49"/>
        <path class="cls-1" d="M180.97.88h8.06l11.75,31.14h-8.33l-1.6-4.91h-11.51l-1.55,4.91h-8.31L180.97.88ZM188.97,21.36l-3.83-12.87h-.08l-3.87,12.87h7.78Z"/>
      </g>
      <g>
        <path class="cls-1" d="M218.18.88h15.22c6.3,0,10.54,2.19,10.54,8,0,3.98-2.27,6.08-6.52,7.04v.09c4.24.31,7.65,2.54,7.65,7.13,0,6.43-4.81,8.88-12.73,8.88h-14.17V.88h.01ZM225.61,13.13h6.47c2.49,0,4.07-.96,4.07-3.24,0-2.62-1.49-3.24-4.07-3.24h-6.47v6.47h0ZM225.7,26.25h6.34c4.11,0,5.25-1.62,5.25-3.63,0-2.58-.96-3.72-3.85-3.72h-7.74v7.35Z"/>
        <path class="cls-1" d="M263.97,32.9c-9.93,0-15.74-7.7-15.74-16.44S254.05,0,263.97,0s15.75,7.7,15.75,16.45-5.82,16.44-15.75,16.44M263.97,6.57c-4.55,0-7.96,2.89-7.96,9.89,0,4.55,1.84,9.88,7.96,9.88,5.77,0,7.96-5.07,7.96-9.88s-2.19-9.89-7.96-9.89"/>
        <path class="cls-1" d="M298.82,32.9c-9.93,0-15.75-7.7-15.75-16.44S288.89,0,298.82,0s15.74,7.7,15.74,16.45-5.82,16.44-15.74,16.44M298.82,6.57c-4.55,0-7.96,2.89-7.96,9.89,0,4.55,1.84,9.88,7.96,9.88,5.77,0,7.96-5.07,7.96-9.88s-2.19-9.89-7.96-9.89"/>
        <polygon class="cls-1" points="318.88 .88 326.66 .88 326.66 13.3 337.81 .88 348.13 .88 336.81 12.69 348.48 32.02 339.82 32.02 331.34 18.2 326.66 22.97 326.66 32.02 318.88 32.02 318.88 .88"/>
        <path class="cls-1" d="M357.12,22.71c2.71,2.45,5.29,3.89,9.01,3.89,2.05,0,5.82-.87,5.82-3.59,0-1.57-1.18-2.36-3.5-2.76l-6.47-1.05c-5.77-.92-8.92-3.98-8.92-8.57,0-7.52,6.08-10.63,12.73-10.63,5.16,0,10.24,2.1,13.73,5.99l-5.9,4.24c-2.05-2.49-5.07-3.94-8.35-3.94-1.79,0-4.42,1.14-4.42,3.15,0,1.66,1.36,2.49,4.33,2.97l2.97.48c6.21,1.01,11.33,2.93,11.33,8.88,0,9.36-8.44,11.11-14.26,11.11-5.29,0-9.8-1.71-14.04-6.34l5.95-3.85v.02Z"/>
        <polygon class="cls-1" points="383.14 .88 407.19 .88 407.19 6.92 399.06 6.92 399.06 32.02 391.27 32.02 391.27 6.92 383.14 6.92 383.14 .88"/>
        <path class="cls-1" d="M424.95,32.9c-9.93,0-15.75-7.7-15.75-16.44S415.02,0,424.95,0s15.75,7.7,15.75,16.45-5.82,16.44-15.75,16.44M424.95,6.57c-4.55,0-7.96,2.89-7.96,9.89,0,4.55,1.84,9.88,7.96,9.88,5.77,0,7.96-5.07,7.96-9.88s-2.19-9.89-7.96-9.89"/>
        <path class="cls-1" d="M444.81.88h15.57c7,0,11.28,3.24,11.28,10.23,0,4.02-2.54,7.26-6.43,8.4l7.13,12.51h-8.7l-6.12-11.2h-4.94v11.2h-7.79V.88h0ZM452.6,15.05h7.13c2.49-.04,4.15-1.31,4.15-4.2s-1.66-4.15-4.15-4.2h-7.13v8.4Z"/>
        <polygon class="cls-1" points="475.95 32.02 475.95 .88 498.86 .88 498.86 6.92 483.73 6.92 483.73 12.6 497.86 12.6 497.86 18.64 483.73 18.64 483.73 25.99 500.18 25.99 500.18 32.02 475.95 32.02"/>
      </g>
    </g>
  </g>
</svg>