<?xml version="1.0" encoding="UTF-8"?>
<svg id="_圖層_2" data-name="圖層 2" xmlns="http://www.w3.org/2000/svg" viewBox="0 0 383.77 48.35">
  <defs>
    <style>
      .cls-1, .cls-2 {
        fill: #231815;
      }

      .cls-2 {
        fill-rule: evenodd;
      }
    </style>
  </defs>
  <g id="_圖層_1-2" data-name="圖層 1">
    <g>
      <g>
        <polygon class="cls-1" points="60.93 7.84 67.05 7.84 71.77 28.69 77.6 7.84 82.77 7.84 88.7 28.69 93.37 7.84 99.49 7.84 92.13 40.51 86.17 40.51 80.15 19.39 74.23 40.51 68.33 40.51 60.93 7.84"/>
        <polygon class="cls-1" points="113.33 7.84 112.16 7.84 109.21 7.84 108.04 7.84 107.84 7.84 107.65 7.84 107.65 8.03 107.65 8.22 107.65 9.39 107.65 38.97 107.65 40.13 107.65 40.32 107.65 40.51 107.84 40.51 108.04 40.51 109.21 40.51 112.16 40.51 113.33 40.51 113.52 40.51 113.72 40.51 113.72 40.32 113.72 40.13 113.72 38.97 113.72 9.39 113.72 8.22 113.72 8.03 113.72 7.84 113.52 7.84 113.33 7.84"/>
        <path class="cls-1" d="M135.55,26.59c1.64-.17,2.77-.47,3.74-.9,1.69-.75,3.01-1.88,3.94-3.37.9-1.47,1.36-3.17,1.36-5.08,0-2.3-.67-4.27-2.01-5.86-1.31-1.59-3.04-2.64-5.13-3.11-1.29-.3-3.58-.44-7.01-.44h-7.45v32.68h6.06v-12.91l9.22,12.91h7.19l-9.91-13.92ZM137.88,15.4c.37.56.55,1.16.55,1.85,0,.73-.18,1.36-.55,1.92-.36.55-.85.95-1.48,1.2-.53.2-1.62.46-3.8.46l-3.56-.03v-6.97h3.67c2.27,0,3.3.23,3.78.41.57.23,1.03.6,1.39,1.15"/>
        <polygon class="cls-1" points="172.96 7.84 171.79 7.84 154.84 7.84 153.67 7.84 153.48 7.84 153.29 7.84 153.29 8.02 153.29 8.22 153.29 9.38 153.29 38.96 153.29 40.13 153.29 40.32 153.29 40.51 153.48 40.51 153.67 40.51 154.84 40.51 171.67 40.51 172.83 40.51 173.03 40.51 173.22 40.51 173.22 40.32 173.22 40.13 173.22 38.96 173.22 36.06 173.22 34.9 173.22 34.7 173.22 34.51 173.03 34.51 172.83 34.51 171.67 34.51 159.35 34.51 159.35 26 171.67 26 172.83 26 173.03 26 173.22 26 173.22 25.81 173.22 25.61 173.22 24.44 173.22 21.55 173.22 20.39 173.22 20.19 173.22 20 173.03 20 172.83 20 171.67 20 159.35 20 159.35 13.83 171.79 13.83 172.96 13.83 173.15 13.83 173.35 13.83 173.35 13.64 173.35 13.44 173.35 12.28 173.35 9.38 173.35 8.22 173.35 8.02 173.35 7.84 173.15 7.84 172.96 7.84"/>
        <path class="cls-1" d="M200.46,8.99c-2.19-.78-5.51-1.16-10.15-1.16h-7.68v32.69h10.96c3.98,0,7.04-.59,9.32-1.79,2.3-1.2,4.19-3.08,5.62-5.59,1.41-2.48,2.12-5.36,2.12-8.58,0-3.72-.9-6.98-2.68-9.72-1.81-2.76-4.33-4.73-7.51-5.85M188.57,34.62V13.84h.54c4.08,0,7,.26,8.7.78,2.13.65,3.75,1.81,4.94,3.55,1.19,1.75,1.8,3.92,1.8,6.44s-.55,4.42-1.64,6.03c-1.09,1.6-2.54,2.69-4.43,3.3-1.43.46-4.13.69-8.04.69h-1.87Z"/>
        <polygon class="cls-1" points="290.76 7.94 296.82 7.94 296.82 21.49 296.91 21.49 307.32 7.94 314.57 7.94 301.88 24.5 314.77 40.64 307.41 40.64 296.91 27.59 296.82 27.59 296.82 40.64 290.76 40.64 290.76 7.94"/>
        <polygon class="cls-1" points="232.61 13.83 225.63 13.83 225.63 7.84 245.69 7.84 245.69 13.83 238.66 13.83 238.66 40.51 232.61 40.51 232.61 13.83"/>
        <path class="cls-1" d="M279.12,11.96c-3.24-3.23-7.42-4.88-12.26-4.88s-9.01,1.65-12.26,4.88c-3.25,3.24-4.91,7.29-4.91,12.04,0,4.48,1.37,8.36,4.05,11.55,3.19,3.79,7.62,5.71,13.11,5.71s9.92-1.93,13.11-5.71c2.69-3.18,4.05-7.07,4.05-11.55,0-4.75-1.66-8.8-4.91-12.04ZM274.79,32.18c-2.13,2.14-4.64,3.17-7.93,3.17s-5.79-1.04-7.92-3.17c-2.12-2.12-3.16-4.72-3.16-7.91,0-2.1.47-4.01,1.41-5.66.94-1.67,2.29-3.01,3.99-3.99,1.72-.99,3.65-1.5,5.68-1.5s3.97.5,5.68,1.5c1.7.97,3.05,2.32,3.99,3.99.94,1.66,1.41,3.56,1.41,5.66,0,3.19-1.04,5.79-3.16,7.91Z"/>
        <path class="cls-1" d="M378.87,11.96c-3.25-3.23-7.43-4.88-12.26-4.88s-9.01,1.65-12.26,4.88c-3.25,3.24-4.91,7.29-4.91,12.04,0,4.48,1.37,8.36,4.05,11.55,3.19,3.79,7.62,5.71,13.11,5.71s9.92-1.93,13.11-5.71c2.69-3.18,4.05-7.07,4.05-11.55,0-4.75-1.66-8.8-4.91-12.04ZM374.53,32.18c-2.13,2.14-4.64,3.17-7.93,3.17s-5.79-1.04-7.93-3.17c-2.12-2.12-3.16-4.72-3.16-7.91,0-2.1.47-4.01,1.41-5.66.94-1.67,2.29-3.01,3.99-3.99,1.72-.99,3.65-1.5,5.68-1.5s3.97.5,5.68,1.5c1.7.97,3.05,2.32,3.99,3.99.94,1.66,1.41,3.56,1.41,5.66,0,3.19-1.04,5.79-3.16,7.91Z"/>
        <path class="cls-1" d="M330.63,28.46l-10.73-20.62h6.62l7.11,15.01,7.15-15.01h6.67l-10.77,20.62v12.05h-6.05v-12.05Z"/>
      </g>
      <path class="cls-2" d="M24.1,0C10.78.04,0,10.85,0,24.17s10.78,24.13,24.1,24.17c13.32-.04,24.1-10.85,24.1-24.17S37.42.04,24.1,0ZM2.69,24.17c0-4.23,1.22-8.16,3.33-11.49,0,0,3.78,18.75,7.14,29.94-6.19-3.92-10.47-10.61-10.47-18.45ZM15.07,28.45s-.72.17-1.21-.87c-2.81-5.96-6.14-17.21-6.14-17.21,3.7-4.39,9.12-7.3,15.22-7.64-4.65,16.32-6.71,24.46-6.71,24.46-.44,1.34-1.16,1.27-1.16,1.27ZM32.64,43.86c-2.62,1.15-5.5,1.79-8.54,1.8-3.04,0-5.92-.65-8.54-1.8-.16-.07,3.86-16.42,7.29-24.23.47-1.08,1.13-1.09,1.24-1.08.11,0,.77,0,1.24,1.08,3.44,7.81,7.46,24.16,7.3,24.23ZM33.13,28.45s-.72.07-1.16-1.27c0,0-2.07-8.13-6.71-24.46,6.1.34,11.52,3.25,15.22,7.64,0,0-3.34,11.25-6.14,17.21-.49,1.05-1.21.87-1.21.87ZM35.03,42.62c3.37-11.18,7.14-29.94,7.14-29.94,2.11,3.32,3.33,7.26,3.33,11.49,0,7.84-4.28,14.53-10.47,18.45Z"/>
    </g>
  </g>
</svg>