<?xml version="1.0" encoding="UTF-8"?>
<svg version="1.1" xmlns="http://www.w3.org/2000/svg" width="512" height="512">
<path d="M0 0 C0.90473557 -0.00701431 1.80947113 -0.01402863 2.74162292 -0.02125549 C5.64681015 -0.03867457 8.55179372 -0.04510808 11.45703125 -0.046875 C12.44817932 -0.04754974 13.43932739 -0.04822449 14.46051025 -0.04891968 C28.60974545 -0.03358338 42.37657214 0.28168219 56.26953125 3.203125 C57.17703125 3.38536621 58.08453125 3.56760742 59.01953125 3.75537109 C82.41619567 8.51179217 104.16199701 16.05663042 125.26953125 27.203125 C126.16454346 27.67057129 126.16454346 27.67057129 127.07763672 28.14746094 C143.34104229 36.72147392 157.31673658 48.25033033 170.26953125 61.203125 C171.03652344 61.92371094 171.80351562 62.64429688 172.59375 63.38671875 C191.96826722 81.8645641 204.37197384 107.31940082 210.26953125 133.203125 C210.48351562 134.08613281 210.6975 134.96914062 210.91796875 135.87890625 C211.8615971 140.27566731 212.30433816 144.37862173 212.1875 148.87109375 C211.86125307 160.03155019 211.86125307 160.03155019 217.01855469 169.5234375 C219.14584798 171.63877224 221.33688635 173.664489 223.58349609 175.65234375 C226.41738827 178.25890082 228.90145826 181.14923133 231.39453125 184.078125 C231.89162598 184.66102295 232.3887207 185.2439209 232.90087891 185.84448242 C249.22442917 205.31129253 259.01441489 228.01887628 263.95703125 252.828125 C264.15973633 253.83367432 264.36244141 254.83922363 264.57128906 255.87524414 C267.80145735 273.08707992 268.64297365 290.45577574 268.64013672 307.93408203 C268.64454959 310.96572518 268.68118084 313.99595174 268.71875 317.02734375 C268.89928168 348.08478427 257.47916255 372.72377969 235.765625 394.7421875 C223.9885097 405.72381396 210.46756513 413.793092 196.26953125 421.203125 C195.56860352 421.57791992 194.86767578 421.95271484 194.14550781 422.33886719 C145.48904335 448.1356731 85.05553747 456.34149208 30.74609375 456.37109375 C29.30667085 456.37432688 27.86724824 456.37769226 26.42782593 456.38117981 C23.43120568 456.38710607 20.43461396 456.38902672 17.43798828 456.38842773 C14.4268589 456.38834691 11.41588306 456.39523158 8.40478516 456.40893555 C-63.3856882 456.73044925 -150.29884718 447.6879968 -206.73046875 398.203125 C-207.61992187 397.46964844 -208.509375 396.73617188 -209.42578125 395.98046875 C-227.47157412 380.58242042 -240.55693514 357.85759403 -243.73046875 334.203125 C-243.89317382 330.90904135 -243.91763314 327.6180164 -243.93359375 324.3203125 C-243.94060806 323.36101334 -243.94762238 322.40171417 -243.95484924 321.41334534 C-243.97239152 318.30155776 -243.97870932 315.18996034 -243.98046875 312.078125 C-243.98114349 311.01812286 -243.98181824 309.95812073 -243.98251343 308.86599731 C-243.93966908 266.54979882 -238.68249254 222.90316032 -210.73046875 189.203125 C-210.28525879 188.65930176 -209.84004883 188.11547852 -209.38134766 187.55517578 C-204.59547775 181.71717547 -199.77140618 175.9475367 -194.265625 170.765625 C-193.75902344 170.25 -193.25242188 169.734375 -192.73046875 169.203125 C-192.01761719 168.50316406 -191.30476563 167.80320313 -190.5703125 167.08203125 C-188.00704383 163.07114163 -188.22596815 159.80279229 -188.23046875 155.140625 C-187.33483968 121.90181954 -173.35032878 90.55498747 -150.73828125 66.3671875 C-149.0169256 64.51187422 -147.43389784 62.61591626 -145.85546875 60.640625 C-141.76253711 55.82408114 -136.66568389 52.10932409 -131.73046875 48.203125 C-130.92480469 47.53152344 -130.11914062 46.85992187 -129.2890625 46.16796875 C-122.49910596 40.54136555 -115.24212395 35.7897441 -107.73046875 31.203125 C-107.15780273 30.85217773 -106.58513672 30.50123047 -105.99511719 30.13964844 C-74.90369155 11.26461391 -36.41153698 0.18915253 0 0 Z M-29.73046875 20.203125 C-30.67986328 20.39648438 -31.62925781 20.58984375 -32.60742188 20.7890625 C-69.28282657 28.33371718 -102.0543841 43.92715824 -129.73046875 69.203125 C-130.6121875 70.00105469 -131.49390625 70.79898438 -132.40234375 71.62109375 C-152.88428565 91.09198438 -170.23436092 121.04961978 -170.96875 149.96875 C-170.99917323 151.79678925 -171.02373813 153.62493375 -171.04296875 155.453125 C-171.07197266 156.35675781 -171.10097656 157.26039063 -171.13085938 158.19140625 C-171.21256008 166.92709682 -168.2686861 173.21869349 -163.54296875 180.453125 C-162.63804687 181.84724609 -162.63804687 181.84724609 -161.71484375 183.26953125 C-160.35766857 185.27590636 -158.97059931 187.26229553 -157.55859375 189.23046875 C-153.3015293 195.16833968 -149.56876767 201.05302427 -146.29296875 207.578125 C-145.96304932 208.23192139 -145.63312988 208.88571777 -145.29321289 209.55932617 C-141.58899356 217.16435478 -140.45667878 224.2790031 -139.91796875 232.640625 C-138.57934489 249.2985934 -134.72082101 262.8542957 -122.23046875 274.765625 C-116.59451346 279.38184519 -110.24366968 283.04853122 -104.02441406 286.81347656 C-101.57507022 288.29726383 -99.13272309 289.79210798 -96.69140625 291.2890625 C-92.37545985 293.93429285 -88.05429473 296.57079576 -83.73046875 299.203125 C-81.49183124 296.96448749 -81.30997703 296.09830099 -80.6875 293.08203125 C-80.50469482 292.23858154 -80.32188965 291.39513184 -80.13354492 290.52612305 C-79.93865479 289.61515869 -79.74376465 288.70419434 -79.54296875 287.765625 C-71.55447012 252.60839622 -52.45637201 215.48975465 -21.73046875 195.203125 C-6.60800741 186.19544467 7.70824105 183.13902458 25.30078125 185.6328125 C27.76455336 186.29803097 29.94718381 187.14341306 32.26953125 188.203125 C33.37554687 188.69039062 34.4815625 189.17765625 35.62109375 189.6796875 C43.33671902 193.22760429 49.88245312 197.58990787 56.26953125 203.203125 C57.37167969 204.09064453 57.37167969 204.09064453 58.49609375 204.99609375 C86.07014809 227.84455927 99.29910986 265.57183474 107.26953125 299.203125 C140.9801912 282.16045254 140.9801912 282.16045254 161.3125 251.9765625 C162.96759017 245.45077838 163.62177575 238.89219204 164.26953125 232.203125 C166.25093511 213.03607541 174.73613536 199.59841607 185.59960938 184.15405273 C194.89476816 170.80259912 197.12138254 158.88398236 194.93701172 142.74658203 C194.02743752 137.80452711 192.7016874 133.01676097 191.26953125 128.203125 C190.83640625 126.64078125 190.83640625 126.64078125 190.39453125 125.046875 C179.07441284 87.44791029 148.33384457 59.47078387 114.9230957 41.06518555 C95.67531816 30.73205628 75.60204645 24.61786002 54.26953125 20.203125 C53.45387695 20.02378418 52.63822266 19.84444336 51.79785156 19.65966797 C26.40450209 14.23516586 -4.40704964 14.66048925 -29.73046875 20.203125 Z M-182.73046875 183.203125 C-202.54919556 203.70290771 -216.66886936 226.25877073 -222.48046875 254.390625 C-222.67930664 255.34445068 -222.87814453 256.29827637 -223.08300781 257.28100586 C-226.27988765 273.93027929 -227.10401907 290.84401467 -227.10107422 307.76220703 C-227.10550066 310.59857023 -227.1421846 313.43343499 -227.1796875 316.26953125 C-227.26741804 330.30276289 -225.70056601 342.86573469 -218.98046875 355.453125 C-218.46178223 356.44940918 -218.46178223 356.44940918 -217.93261719 357.46582031 C-198.84148519 393.2422209 -159.26271306 411.0373975 -122.24316406 422.44628906 C-102.13274742 428.50364347 -81.59230829 432.54852115 -60.79296875 435.390625 C-59.67752686 435.54539307 -58.56208496 435.70016113 -57.4128418 435.85961914 C-35.61227832 438.68872338 -13.81519639 439.53725799 8.14648438 439.46386719 C11.58124677 439.45247359 15.01569902 439.45926533 18.4504509 439.47074509 C40.75258716 439.53392676 62.90781675 438.50032814 85.01953125 435.453125 C86.25356689 435.28393555 87.48760254 435.11474609 88.7590332 434.94042969 C131.94239031 428.78660319 176.75395981 417.69736145 212.26953125 391.203125 C213.15125 390.54570312 214.03296875 389.88828125 214.94140625 389.2109375 C233.4022465 374.9353188 247.78802481 355.69820353 251.26953125 332.203125 C251.79564444 325.17365264 251.70272912 318.1220823 251.64453125 311.078125 C251.63854919 309.61996872 251.63854919 309.61996872 251.63244629 308.13235474 C251.55646615 292.33222068 250.84852442 276.82020851 248.26953125 261.203125 C248.12499512 260.31463867 247.98045898 259.42615234 247.83154297 258.51074219 C242.73303901 228.48433683 227.86853652 205.09794622 207.26953125 183.203125 C202.39898992 187.80259491 199.01733507 193.27161404 195.33203125 198.828125 C194.62884766 199.87097656 193.92566406 200.91382813 193.20117188 201.98828125 C185.47061831 213.59497929 181.05062241 223.01174739 179.8515625 236.92578125 C179.02387638 246.48723301 178.20771954 255.31930491 174.26953125 264.203125 C173.67205078 265.56244141 173.67205078 265.56244141 173.0625 266.94921875 C164.11674264 285.12431656 147.2244795 295.45965716 130.07348633 304.89208984 C121.86035063 309.50909555 113.44374098 315.11013029 108.26953125 323.203125 C107.85929334 325.98812039 107.58255952 328.6545785 107.39453125 331.453125 C105.80691512 349.01301376 99.63281895 367.41190213 86.5625 379.82421875 C85.04152796 381.13123626 85.04152796 381.13123626 85.26953125 383.203125 C84.686875 383.46867188 84.10421875 383.73421875 83.50390625 384.0078125 C81.20342124 385.23849154 79.4944125 386.62972713 77.51953125 388.328125 C59.13184419 402.7734438 35.64353968 407.64519526 12.76953125 407.578125 C12.06909698 407.57758118 11.36866272 407.57703735 10.64700317 407.57647705 C-13.82396304 407.48943017 -38.95643977 402.00730893 -57.20703125 384.48828125 C-58.65306766 382.98819187 -58.65306766 382.98819187 -60.73046875 383.203125 C-61.00503906 382.605 -61.27960938 382.006875 -61.5625 381.390625 C-62.68100897 379.2957587 -63.79305315 377.91262524 -65.41796875 376.203125 C-75.50309434 364.59293163 -82.35614764 347.6859202 -82.8203125 332.20703125 C-83.02546005 325.6341036 -83.71846027 321.75630752 -88.57983398 317.13110352 C-95.19486443 311.20093035 -102.18910306 306.61782479 -109.98046875 302.390625 C-118.53319759 297.62300073 -126.29320786 292.58752064 -133.73046875 286.203125 C-134.42140625 285.61273438 -135.11234375 285.02234375 -135.82421875 284.4140625 C-148.72340472 272.47665794 -154.17381273 255.46348865 -155.41162109 238.41723633 C-156.61899328 221.9017838 -161.9011333 211.80320988 -171.24707031 198.35644531 C-173.98062236 194.38838588 -176.58056116 190.33241326 -179.20703125 186.29296875 C-180.56447754 184.09473267 -180.56447754 184.09473267 -182.73046875 183.203125 Z M-34.5859375 229.5 C-38.77657698 234.78219038 -42.32096563 240.39874694 -45.73046875 246.203125 C-46.11235352 246.85168457 -46.49423828 247.50024414 -46.88769531 248.16845703 C-54.31555871 260.98791396 -61.13470108 275.32259146 -62.73046875 290.203125 C-61.08111328 289.9865625 -61.08111328 289.9865625 -59.3984375 289.765625 C-30.09979087 286.02897638 -30.09979087 286.02897638 -18.48046875 293.578125 C-13.17027556 298.00878309 -10.12028299 304.28635833 -6.73046875 310.203125 C-1.54021967 318.7812949 4.00940881 327.21189598 11.26953125 334.203125 C21.69013154 329.59183984 27.86780986 316.15649318 33.33984375 306.62109375 C38.61649173 297.56802123 42.8297407 292.23845264 53.08203125 289.328125 C64.57314189 286.90668149 75.77243378 288.69354128 87.26953125 290.203125 C84.46492582 264.30380571 68.16034694 238.45537131 50.26953125 220.203125 C49.46257812 219.36007813 48.655625 218.51703125 47.82421875 217.6484375 C38.37768209 208.37109254 26.17549984 201.1765478 12.70703125 200.890625 C-7.178882 201.07608948 -22.19659641 215.3024848 -34.5859375 229.5 Z M-66.73046875 309.203125 C-67.4448714 331.14078182 -66.42145411 350.11946134 -51.35546875 367.578125 C-37.92771566 381.57197224 -19.04995919 390.29054262 0.43481445 391.38012695 C22.66620336 391.84675267 22.66620336 391.84675267 44.26953125 387.203125 C45.99429688 386.65978516 45.99429688 386.65978516 47.75390625 386.10546875 C64.06170869 380.45898786 76.50896881 369.97525015 84.54296875 354.77734375 C88.79314637 345.97889913 91.4199374 337.17866892 91.3671875 327.3671875 C91.36396484 326.30371094 91.36074219 325.24023438 91.35742188 324.14453125 C91.34904297 323.05011719 91.34066406 321.95570313 91.33203125 320.828125 C91.32526367 319.15169922 91.32526367 319.15169922 91.31835938 317.44140625 C91.30662369 314.69525696 91.29020488 311.94921914 91.26953125 309.203125 C89.06243142 308.55308875 86.85379233 307.90827755 84.64453125 307.265625 C83.41476562 306.90597656 82.185 306.54632813 80.91796875 306.17578125 C75.89601242 304.83695135 71.09123378 304.04456258 65.89453125 303.953125 C65.02054688 303.92734375 64.1465625 303.9015625 63.24609375 303.875 C58.26088459 304.42455062 54.00848412 305.13096903 50.65136719 309.13134766 C49.09438111 311.5835749 47.69898718 314.07772904 46.33203125 316.640625 C45.30314428 318.45984948 44.26928473 320.27627063 43.23046875 322.08984375 C42.72999023 322.96946777 42.22951172 323.8490918 41.71386719 324.75537109 C38.67394366 329.90720904 35.03970408 334.5651561 31.26953125 339.203125 C30.34720703 340.37101562 30.34720703 340.37101562 29.40625 341.5625 C25.29292277 346.5605118 21.52960926 350.39505696 14.921875 351.6484375 C9.09138747 352.06296984 5.16720648 350.77653186 0.53515625 347.25390625 C-8.97209963 338.64820049 -15.2944238 327.84290138 -21.84765625 316.9609375 C-22.80707508 315.37408082 -23.76786308 313.78805054 -24.73046875 312.203125 C-25.11420654 311.57035645 -25.49794434 310.93758789 -25.89331055 310.28564453 C-27.72319196 307.38684829 -28.5725479 306.27402824 -31.79296875 304.828125 C-43.89516432 302.90714158 -55.23825374 305.20432099 -66.73046875 309.203125 Z " fill="#000000" transform="translate(243.73046875,27.796875)"/>
<path d="M0 0 C4.62729675 1.81068134 6.57778655 4.74024531 9 9 C12.33413447 17.10230526 12.32023605 27.51923631 10.27734375 36 C8.16817303 41.05517842 5.0108307 45.49458465 0 48 C-4.49851996 48.41402308 -8.63940679 48.53240604 -12.875 46.875 C-17.63449411 42.67544637 -20.52687103 37.30801849 -21.22241211 30.97485352 C-21.78078404 20.24330525 -21.73124414 11.40713617 -14.375 3 C-9.8715724 -0.79236009 -5.70362657 -0.4865653 0 0 Z " fill="#000000" transform="translate(389,236)"/>
<path d="M0 0 C4.62729675 1.81068134 6.57778655 4.74024531 9 9 C12.33413447 17.10230526 12.32023605 27.51923631 10.27734375 36 C8.16817303 41.05517842 5.0108307 45.49458465 0 48 C-4.49851996 48.41402308 -8.63940679 48.53240604 -12.875 46.875 C-17.63449411 42.67544637 -20.52687103 37.30801849 -21.22241211 30.97485352 C-21.78078404 20.24330525 -21.73124414 11.40713617 -14.375 3 C-9.8715724 -0.79236009 -5.70362657 -0.4865653 0 0 Z " fill="#000000" transform="translate(133,236)"/>
</svg>
