<?xml version="1.0" encoding="UTF-8"?>
<svg version="1.1" xmlns="http://www.w3.org/2000/svg" width="512" height="512">
<path d="M0 0 C0.85074097 -0.00701431 1.70148193 -0.01402863 2.57800293 -0.02125549 C5.3476278 -0.03886865 8.11703975 -0.0451181 10.88671875 -0.046875 C11.82526703 -0.04754974 12.76381531 -0.04822449 13.73080444 -0.04891968 C27.23683207 -0.03341333 40.33490923 0.29665601 53.57421875 3.203125 C54.38439453 3.36941406 55.19457031 3.53570312 56.02929688 3.70703125 C90.46076498 10.88579294 122.49432721 28.71602535 142.57421875 58.203125 C157.03571888 80.59875555 163.96786788 105.6284765 163.88989258 132.20361328 C163.88674147 134.43702526 163.91026389 136.66909491 163.93554688 138.90234375 C164.04247201 163.4748873 157.85844883 186.94594157 140.57421875 205.203125 C124.91940695 220.47477707 103.15297838 226.47554566 81.81396484 226.44970703 C56.87881996 226.13646222 36.90915374 215.76030274 19.57421875 198.203125 C15.77631163 207.06490828 15.10274354 216.67200801 18.13671875 225.890625 C20.43549822 231.47111034 23.67577069 235.64587996 27.57421875 240.203125 C51.72669265 269.05237185 66.97500217 296.44247668 64.57421875 335.203125 C62.29172113 356.48448905 54.2061657 375.70975522 40.57421875 392.203125 C40.15140625 392.77160156 39.72859375 393.34007812 39.29296875 393.92578125 C22.98685796 414.95469852 -5.74759433 424.96205479 -31.14135742 428.43212891 C-47.26238039 430.29070782 -63.66221004 429.86165137 -79.71875 427.640625 C-87.27774483 426.74852024 -91.53758892 427.31132278 -98.05078125 430.953125 C-114.20610491 439.48016996 -130.33062035 441.50906589 -148.35839844 441.4777832 C-150.03189825 441.48213942 -151.70539607 441.48732558 -153.37889099 441.49327087 C-157.88892709 441.50656775 -162.39887892 441.50725049 -166.90893078 441.50470757 C-170.68399923 441.50363247 -174.45905099 441.50853446 -178.23411584 441.513313 C-187.13965132 441.52437385 -196.04514459 441.52486356 -204.95068359 441.51879883 C-214.12349971 441.51274816 -223.29616286 441.52510558 -232.46895289 441.5463689 C-240.36480583 441.56399585 -248.2606101 441.56998491 -256.15648198 441.56673115 C-260.8637708 441.56492144 -265.57095023 441.56752426 -270.27822113 441.58144569 C-274.70082609 441.59403888 -279.12319216 441.5920659 -283.54579353 441.57903481 C-285.16467686 441.57667352 -286.7835771 441.57938764 -288.40244102 441.58765793 C-299.02559694 441.63800169 -307.6903374 441.43840477 -315.88671875 433.953125 C-321.07306256 428.05596249 -322.85075016 420.99393316 -322.76953125 413.30859375 C-321.54850515 402.277733 -314.51318274 390.96405917 -306.01171875 383.9609375 C-302.69129252 381.70385018 -299.25232792 379.83351251 -295.67578125 378.015625 C-295.04494629 377.69456787 -294.41411133 377.37351074 -293.76416016 377.04272461 C-287.85371697 374.17492246 -281.67883061 372.18744169 -275.42578125 370.203125 C-275.66288818 369.52846191 -275.89999512 368.85379883 -276.14428711 368.15869141 C-277.22871316 365.0523595 -278.29605689 361.94040665 -279.36328125 358.828125 C-279.73646484 357.76722656 -280.10964844 356.70632813 -280.49414062 355.61328125 C-284.8339656 342.86748897 -284.8339656 342.86748897 -284.42578125 336.203125 C-282.0435118 332.59362583 -280.65049034 331.45827273 -276.42578125 330.578125 C-272.55563438 331.3844056 -270.64162933 333.04400878 -268.42578125 336.203125 C-266.91044794 339.69954025 -265.85437457 343.29481486 -264.80078125 346.953125 C-264.22574578 348.8647294 -263.65023015 350.77618944 -263.07421875 352.6875 C-262.66574707 354.06905273 -262.66574707 354.06905273 -262.24902344 355.47851562 C-261.05913186 359.41659096 -259.74827872 363.30776882 -258.42578125 367.203125 C-253.80578125 366.543125 -249.18578125 365.883125 -244.42578125 365.203125 C-244.78671875 364.00042969 -245.14765625 362.79773438 -245.51953125 361.55859375 C-251.67725342 339.55388916 -252.66902558 316.16100566 -242.17578125 295.390625 C-229.06761017 272.63260883 -207.39521477 260.4064444 -182.86328125 253.140625 C-182.1256958 252.91221924 -181.38811035 252.68381348 -180.62817383 252.44848633 C-175.66220153 251.07479919 -172.32291906 251.13434673 -167.42578125 253.203125 C-164.94539218 256.9237086 -164.96240922 258.80109071 -165.42578125 263.203125 C-168.11210867 266.52417859 -170.48445813 267.86173452 -174.5390625 269.0625 C-175.53276855 269.36929687 -176.52647461 269.67609375 -177.55029297 269.9921875 C-178.6023291 270.30929687 -179.65436523 270.62640625 -180.73828125 270.953125 C-200.45038458 277.22422021 -216.79225 285.73550235 -227.42578125 304.203125 C-235.73854201 322.45904987 -233.92779013 343.45836467 -227.046875 361.8984375 C-226.17221353 364.08633714 -225.29370393 366.27270503 -224.41015625 368.45703125 C-222.80350044 372.93909091 -222.58460456 376.07214405 -224.36328125 380.578125 C-228.66074408 383.96400481 -234.61292433 383.24054529 -239.86328125 383.140625 C-258.61533517 382.99503452 -281.76195205 386.3016802 -296.671875 398.41015625 C-301.04257613 402.87820039 -304.37037211 408.33308605 -305.55078125 414.515625 C-305.40369778 418.85458746 -304.54391239 420.26317278 -301.42578125 423.203125 C-298.56771331 424.63215897 -296.1357295 424.33571898 -292.93951416 424.34356689 C-292.26572999 424.34653802 -291.59194582 424.34950914 -290.89774394 424.3525703 C-288.62875698 424.36127576 -286.35982267 424.36276716 -284.09082031 424.36425781 C-282.46794013 424.3688851 -280.84506104 424.37390963 -279.22218323 424.37930298 C-274.80208154 424.39244739 -270.38199506 424.39887721 -265.96187687 424.40331364 C-263.19683948 424.40624424 -260.43180624 424.41034928 -257.66677094 424.41481781 C-249.00630756 424.42850507 -240.34585367 424.43816275 -231.68538022 424.4420197 C-221.70771099 424.44648792 -211.73017961 424.46397292 -201.75255227 424.4930203 C-194.03175971 424.51471129 -186.31100569 424.52472811 -178.59018302 424.52606082 C-173.98426502 424.52710459 -169.37847638 424.53291925 -164.77259064 424.55088043 C-160.42890675 424.56748715 -156.08544761 424.5694562 -151.74174309 424.56074142 C-150.15763429 424.55997744 -148.57351279 424.56422823 -146.9894352 424.57419968 C-126.3453624 424.69639597 -108.02470244 419.7780653 -91.42578125 407.203125 C-90.62527344 406.59855469 -89.82476562 405.99398438 -89 405.37109375 C-75.52602003 394.31731053 -66.8820045 377.31070121 -64.42578125 360.203125 C-63.48765265 349.37679988 -64.58059729 338.70131168 -65.9609375 327.96875 C-67.48458842 315.62589714 -67.48458842 315.62589714 -64.42578125 311.515625 C-61.00117034 310.01735773 -58.93699275 309.965544 -55.29296875 310.35546875 C-52.32999349 311.70058513 -51.74243851 313.22649871 -50.42578125 316.203125 C-49.62237423 319.63478796 -49.16371706 323.08155618 -48.73828125 326.578125 C-48.61308105 327.58673584 -48.48788086 328.59534668 -48.35888672 329.63452148 C-45.2787765 356.67453667 -47.83969642 381.72942227 -64.65234375 404.17578125 C-66.54252195 406.55019239 -68.45797277 408.89286674 -70.42578125 411.203125 C-43.75428632 416.81817656 -12.59963356 410.07770975 10.57421875 396.203125 C14.14883818 393.76157459 17.38288136 391.12322757 20.57421875 388.203125 C21.25613281 387.61273438 21.93804687 387.02234375 22.640625 386.4140625 C38.58310466 371.75072504 46.65657583 349.37321786 47.95703125 328.140625 C48.59212151 310.32720144 44.33921617 295.5913295 35.57421875 280.203125 C35.04054688 279.25179688 34.506875 278.30046875 33.95703125 277.3203125 C28.35121812 267.97729062 21.02528566 259.77736607 14.08837891 251.41113281 C2.55698834 237.41590731 -1.8971784 224.21914102 -0.42578125 206.203125 C0.70019633 198.77927867 2.76227595 191.69529426 6.07421875 184.953125 C7.93474674 180.7076731 7.35240432 178.24535145 5.88671875 173.890625 C5.29310547 172.44236328 5.29310547 172.44236328 4.6875 170.96484375 C0.45204106 160.45793333 1.22357453 146.18377904 5.31640625 135.80859375 C9.49896828 127.14471526 16.40245066 117.06492209 25.57421875 113.203125 C28.57421875 112.703125 28.57421875 112.703125 31.57421875 113.203125 C34.90300507 115.66353228 36.36723823 117.09922887 37.13671875 121.203125 C36.12467153 126.60071017 32.63518219 129.16684544 28.57421875 132.515625 C22.81577475 137.42692361 20.05653862 143.42815834 19.30078125 150.91015625 C18.83757117 165.07369528 23.40260997 176.53446188 32.57421875 187.203125 C33.16847656 187.91984375 33.76273437 188.6365625 34.375 189.375 C45.65801759 201.84188881 63.78813571 208.36175384 80.1953125 209.44140625 C98.21584185 209.79185667 114.87610995 205.3299403 128.33886719 192.72216797 C142.94915916 178.16526909 146.72302684 158.95997084 146.9543457 139.05249023 C146.95265381 137.76157471 146.95096191 136.47065918 146.94921875 135.140625 C146.94890152 134.12973312 146.94890152 134.12973312 146.94857788 133.09841919 C146.86351007 105.79245897 138.91737216 80.61759168 121.57421875 59.203125 C121.07277344 58.54828125 120.57132812 57.8934375 120.0546875 57.21875 C100.50686208 32.6572172 65.42923853 21.12444762 35.484375 17.52880859 C25.33949525 16.68382423 15.1061984 16.69220067 4.93066406 16.70581055 C4.0784729 16.69998459 3.22628174 16.69415863 2.3482666 16.68815613 C0.73655448 16.67756321 -0.87536771 16.68291233 -2.48693848 16.70674133 C-6.01328717 16.67267187 -8.02534252 16.50357327 -10.88574219 14.35742188 C-12.89666118 11.54443056 -13.35528387 9.65749682 -13.42578125 6.203125 C-10.31565953 -0.46142154 -6.76247651 0.03625781 0 0 Z " fill="#000000" transform="translate(348.42578125,35.796875)"/>
<path d="M0 0 C1.73113816 2.6422635 2.06159169 4.66479226 2.1875 7.8125 C0.76741282 10.97862563 -0.15030882 12.48771285 -3.29833984 14.03173828 C-4.28012207 14.31259277 -5.2619043 14.59344727 -6.2734375 14.8828125 C-7.37453857 15.21579346 -8.47563965 15.54877441 -9.61010742 15.8918457 C-10.79064697 16.23691162 -11.97118652 16.58197754 -13.1875 16.9375 C-53.88521526 29.71352587 -80.35999056 56.36211333 -102.51171875 91.828125 C-102.93283936 92.50133789 -103.35395996 93.17455078 -103.7878418 93.86816406 C-105.93315921 97.93900226 -105.70560266 100.73584481 -105.08203125 105.2421875 C-102.99696471 125.1258655 -107.98139725 142.73722213 -115.8125 160.8125 C-115.01328125 161.40675781 -114.2140625 162.00101563 -113.390625 162.61328125 C-106.4008606 167.86846914 -99.83353546 173.36960121 -93.46875 179.3671875 C-90.87004157 181.81958099 -90.87004157 181.81958099 -88.16796875 183.91015625 C-86.0469562 185.62314649 -84.37227476 187.29533878 -82.625 189.375 C-79.85490045 192.6297174 -76.98803278 195.75937713 -74.0625 198.875 C-56.17870651 218.52542962 -42.25719056 242.90616582 -33.0625 267.75 C-32.55976562 269.08889282 -32.55976562 269.08889282 -32.046875 270.45483398 C-30.16896905 275.7855169 -29.28079366 280.15764673 -29.8125 285.8125 C-31.875 288.375 -31.875 288.375 -34.8125 289.8125 C-38.18536137 289.75434722 -40.64802871 289.70764766 -43.38110352 287.60668945 C-45.24451929 285.27098375 -46.071434 282.97755143 -47.08984375 280.16796875 C-47.51450928 279.02690674 -47.9391748 277.88584473 -48.37670898 276.71020508 C-49.05648804 274.87365356 -49.05648804 274.87365356 -49.75 273 C-65.95067791 230.34043509 -94.67087279 196.44333604 -131.80078125 170.37109375 C-134.61482066 168.19089623 -134.7647703 167.12274304 -135.3125 163.5625 C-135.2758716 158.49862384 -132.91831788 154.68576125 -130.5949707 150.29760742 C-121.10795958 132.18429707 -119.5744688 111.6060118 -125.5703125 92.15234375 C-128.05596632 85.46921791 -131.44370902 79.43877682 -135.8125 73.8125 C-136.53953125 74.79089844 -136.53953125 74.79089844 -137.28125 75.7890625 C-142.10960052 82.08448876 -146.88130069 87.97763514 -154.5 90.8125 C-157.41278883 90.8125 -159.25450897 90.19519785 -161.8125 88.8125 C-164.17336122 85.27120816 -164.38519578 83.98499782 -163.8125 79.8125 C-161.48757648 76.55760707 -159.04467689 74.03914887 -156.1875 71.25 C-151.56251533 66.50330521 -149.71215682 61.98086291 -149.5 55.4375 C-149.64428055 44.56836502 -153.58856309 34.59067595 -159.8125 25.8125 C-160.23660156 25.20535156 -160.66070312 24.59820312 -161.09765625 23.97265625 C-163.83293423 20.37545787 -166.67408527 18.54485965 -170.8125 16.8125 C-186.38087675 26.15352605 -195.39186427 43.52094107 -203.60302734 59.14990234 C-203.98281738 59.86355957 -204.36260742 60.5772168 -204.75390625 61.3125 C-205.08076416 61.9415625 -205.40762207 62.570625 -205.74438477 63.21875 C-206.8125 64.8125 -206.8125 64.8125 -209.8125 66.8125 C-213.39421371 67.13811034 -215.91024552 67.2398837 -219.1875 65.6875 C-221.40144813 63.13294447 -221.60411261 61.14669822 -221.8125 57.8125 C-221.4825 56.8225 -221.1525 55.8325 -220.8125 54.8125 C-242.64751218 59.74860648 -264.00287704 67.44013105 -280.8125 82.8125 C-281.52664063 83.44671875 -282.24078125 84.0809375 -282.9765625 84.734375 C-292.29657784 93.46098112 -298.92993403 105.7136304 -300.05078125 118.5390625 C-300.30481091 128.45958906 -298.0588645 137.14106087 -291.67578125 144.91796875 C-277.1893562 159.64735271 -254.86470877 166.98735979 -235.09765625 171.07421875 C-232.45357953 171.92845892 -231.39816843 172.53092693 -229.8125 174.8125 C-227.79424974 180.667244 -229.94242603 185.89294857 -231.6875 191.5625 C-231.96980469 192.52027344 -232.25210938 193.47804687 -232.54296875 194.46484375 C-234.60782339 201.40314678 -234.60782339 201.40314678 -235.8125 203.8125 C-224.01189173 195.84178974 -212.93616796 187.59883475 -203.29296875 177.05859375 C-197.04679906 170.25910068 -197.04679906 170.25910068 -192.5 170 C-188.8125 170.8125 -188.8125 170.8125 -186.3125 172.375 C-184.24647297 175.73229392 -184.46079505 177.91478157 -184.8125 181.8125 C-201.90102714 211.39041981 -245.55651579 231.7332116 -275.93579102 243.28930664 C-291.50172201 248.64373127 -291.50172201 248.64373127 -302.8125 259.8125 C-303.7331574 262.49108968 -303.7331574 262.49108968 -302.8125 264.8125 C-294.90186602 270.96521532 -282.90239587 269.56852113 -273.44970703 268.56054688 C-245.86662268 264.68394255 -218.95360584 252.83123084 -194.47045898 239.99926758 C-190.50600126 238.22915377 -188.08477828 238.04959316 -183.8125 238.8125 C-181.3125 240.375 -181.3125 240.375 -179.8125 242.8125 C-179.25 246.25 -179.25 246.25 -179.8125 249.8125 C-183.10324326 253.66686977 -186.35278574 255.87199335 -190.9140625 258.01171875 C-191.50022339 258.28868088 -192.08638428 258.56564301 -192.69030762 258.85099792 C-194.60025352 259.74710332 -196.51791541 260.62475239 -198.4375 261.5 C-199.09312927 261.80286926 -199.74875854 262.10573853 -200.42425537 262.41778564 C-210.12229044 266.89110982 -219.92596108 270.96659727 -229.9375 274.6875 C-231.64220459 275.3211145 -231.64220459 275.3211145 -233.38134766 275.9675293 C-241.2728336 278.8125 -241.2728336 278.8125 -245.8125 278.8125 C-245.70421875 280.22789062 -245.70421875 280.22789062 -245.59375 281.671875 C-245.34989658 285.0451806 -245.12900403 288.41766267 -244.93261719 291.79394531 C-244.82326626 293.63157439 -244.69767386 295.46821879 -244.5703125 297.3046875 C-244.24634075 304.94660938 -244.24634075 304.94660938 -246.9375 309.0625 C-250.36437542 311.14842417 -251.8794348 311.63188858 -255.8125 310.8125 C-258.64011135 308.86458996 -260.38726553 307.31645426 -261.34375 303.93359375 C-262.22299764 297.30260115 -261.90533434 290.48625769 -261.8125 283.8125 C-262.47459473 283.95252441 -263.13668945 284.09254883 -263.81884766 284.23681641 C-277.88425083 287.02817822 -295.68020343 288.69497368 -308.8125 281.8125 C-313.93533634 278.27160735 -317.99724848 274.917525 -319.8125 268.8125 C-320.85691032 259.32779699 -319.60189832 252.91361312 -313.984375 245.3515625 C-304.60156495 234.38245003 -290.58379452 230.34045169 -277.51171875 225.41015625 C-271.12273822 222.98392732 -265.09831087 220.1903857 -259.0859375 216.95703125 C-256.8125 215.8125 -256.8125 215.8125 -254.8125 215.8125 C-254.65974609 214.20375 -254.65974609 214.20375 -254.50390625 212.5625 C-253.78955204 206.8476663 -252.24716228 201.36346362 -250.75 195.8125 C-250.46833984 194.75160156 -250.18667969 193.69070312 -249.89648438 192.59765625 C-249.20646867 190.00132599 -248.51170797 187.40636689 -247.8125 184.8125 C-248.44663818 184.697854 -249.08077637 184.58320801 -249.73413086 184.46508789 C-271.29976222 180.38958162 -295.90726175 169.2347276 -308.8125 150.8125 C-317.30539446 136.28414582 -319.20594975 121.36710541 -315.25 105 C-311.21532476 91.85928689 -304.42678995 82.29472552 -294.8125 72.8125 C-293.94625 71.9359375 -293.08 71.059375 -292.1875 70.15625 C-286.6072738 64.77531759 -280.77718378 60.67765335 -274.02636719 56.94262695 C-266.94972543 52.98253823 -263.28138978 48.36505753 -259.625 41.375 C-251.70274878 26.8140095 -239.61758045 5.59673295 -222.98046875 0.22265625 C-217.00711815 -0.90743711 -211.68450442 -0.02866276 -206.5 3.125 C-205.25491208 3.99856975 -204.02406868 4.89300591 -202.8125 5.8125 C-201.884375 6.493125 -200.95625 7.17375 -200 7.875 C-197.91693106 9.72000392 -196.43892383 11.57092447 -194.8125 13.8125 C-194.13445312 13.13703125 -193.45640625 12.4615625 -192.7578125 11.765625 C-186.37978043 5.65260811 -180.47437107 0.2854106 -171.28125 -0.3671875 C-162.4589421 0.04125268 -155.43221875 4.39800911 -149.5 10.7421875 C-140.34831612 21.96994782 -133.70360987 35.83017295 -132.5234375 50.375 C-131.65816422 54.55873895 -130.36421882 55.77927203 -127.1875 58.5625 C-121.47662201 63.90466994 -117.30727738 69.82294524 -113.8125 76.8125 C-113.10287109 75.83023438 -113.10287109 75.83023438 -112.37890625 74.828125 C-110.19747715 71.81749771 -108.00490533 68.81514209 -105.8125 65.8125 C-105.10351562 64.82894531 -104.39453125 63.84539062 -103.6640625 62.83203125 C-98.60283122 55.91623327 -93.16515874 49.50244168 -87.24951172 43.31689453 C-86.2926453 42.31515976 -85.34110794 41.30830698 -84.39501953 40.29638672 C-70.34842826 25.2950323 -21.46002128 -14.06001394 0 0 Z M-217.8125 15.8125 C-227.21560644 20.51405322 -234.5333054 30.98555083 -239.8125 39.8125 C-239.8125 40.4725 -239.8125 41.1325 -239.8125 41.8125 C-239.21026611 41.68770264 -238.60803223 41.56290527 -237.98754883 41.43432617 C-233.54780935 40.52838801 -229.11460735 39.6837012 -224.63671875 38.98828125 C-223.78916016 38.84583984 -222.94160156 38.70339844 -222.06835938 38.55664062 C-220.34017488 38.26620049 -218.60806031 37.99833793 -216.87304688 37.75195312 C-212.16763507 36.91904115 -209.55724796 36.14625014 -206.70703125 32.16796875 C-206.08183594 31.06066406 -205.45664063 29.95335937 -204.8125 28.8125 C-207.6065438 23.38876792 -211.90491685 17.78169438 -217.8125 15.8125 Z " fill="#000000" transform="translate(319.8125,42.1875)"/>
<path d="M0 0 C4.24885698 3.46068948 6.94176314 7.602992 8 13 C8.68205644 20.35380857 8.15313827 26.79581564 3.62890625 32.828125 C0.19012459 36.35761793 -2.64106032 37.42412491 -7.5625 37.625 C-12.41994583 37.32556841 -15.38910773 36.43475119 -19 33 C-23.21944751 27.41208303 -24.25457964 21.97156546 -24 15 C-22.98289059 9.5976484 -21.10376257 4.77102507 -17 1 C-11.37946885 -2.38509263 -5.98125183 -2.80820326 0 0 Z " fill="#000000" transform="translate(97,137)"/>
</svg>
