<?xml version="1.0" encoding="UTF-8"?>
<svg version="1.1" xmlns="http://www.w3.org/2000/svg" width="512" height="512">
<path d="M0 0 C2.95348512 2.02180634 5.43972564 4.50855021 8 7 C25.13722864 23.45054526 46.37438206 34.49689113 70 38 C70.74765625 38.11085937 71.4953125 38.22171875 72.265625 38.3359375 C100.30012748 41.7706282 130.22305517 35.63153451 155.85424805 24.17089844 C160.77166003 21.97315778 163.68768192 21.30330255 169 22 C171.9787491 25.16401835 173.91931827 28.5050097 175.77734375 32.41015625 C176.28458984 33.46920166 176.79183594 34.52824707 177.31445312 35.61938477 C177.85005859 36.75561279 178.38566406 37.89184082 178.9375 39.0625 C179.78151367 40.83355103 179.78151367 40.83355103 180.64257812 42.64038086 C185.36780155 52.56997952 190.00006736 62.5440769 194.59741211 72.53344727 C197.32205763 78.44475668 200.11353908 84.29672815 203.1171875 90.07202148 C204 92 204 92 204 94 C207.55187855 95.10230714 209.37063105 95.50653794 213 95 C217.40139723 92.55653847 221.23821826 89.58221902 225.15966797 86.44042969 C226.98503243 85.01171513 228.85150508 83.675447 230.75390625 82.3515625 C231.94034469 81.50554554 233.12655148 80.6592036 234.3125 79.8125 C235.38113281 79.05582031 236.44976562 78.29914063 237.55078125 77.51953125 C240.64593319 74.33552327 240.98494313 72.3915876 241 68 C240.33550738 66.02803079 240.33550738 66.02803079 238.875 64.5 C238.33101563 63.84644531 237.78703125 63.19289063 237.2265625 62.51953125 C236.49179687 61.68808594 235.75703125 60.85664063 235 60 C233.92334712 58.75488423 232.84793589 57.50869426 231.7734375 56.26171875 C230.02152462 54.23159252 228.2658717 52.20555831 226.49560547 50.19140625 C225.94533691 49.56492188 225.39506836 48.9384375 224.828125 48.29296875 C224.0841748 47.45028442 224.0841748 47.45028442 223.32519531 46.59057617 C221.00108917 43.80104936 220.02458501 42.22536258 219.625 38.5625 C220 35 220 35 221.6875 32.625 C224.31196417 30.78078193 225.78929947 30.07830977 229 30 C233.38811868 32.1494344 236.45606547 35.29465114 239.6875 38.875 C240.20425293 39.4421875 240.72100586 40.009375 241.25341797 40.59375 C258.53383487 59.81655986 258.53383487 59.81655986 258.2421875 73.0703125 C257.61856477 80.61413589 253.34742056 85.96407967 248 91 C246.01021985 92.34853725 244.01109902 93.68346724 242 95 C242.9343689 95.00586624 243.86873779 95.01173248 244.8314209 95.01777649 C253.6587818 95.0751154 262.48589899 95.14793497 271.31301117 95.23571491 C275.85058295 95.2803459 280.38806645 95.31961787 284.92578125 95.34643555 C289.30908835 95.37254131 293.6920544 95.41299464 298.07514954 95.46318626 C299.74314617 95.47980595 301.41120173 95.49135063 303.07926941 95.49761391 C305.42495042 95.50730874 307.76976852 95.53543017 310.11523438 95.56762695 C311.13807526 95.56547432 311.13807526 95.56547432 312.18157959 95.5632782 C319.83226894 95.71074852 327.5423654 98.51587203 333 104 C338.51502335 111.32551082 339.1183007 119.08554586 338 128 C336.27203656 134.66500183 331.56013865 139.16899199 326 143 C313.67104098 148.85832597 294.95936235 146.28286608 281.61279297 146.50268555 C278.03474038 146.56192483 274.45683671 146.6271925 270.87890625 146.69335938 C255.91805505 146.95957907 240.96307386 147.05906613 226 147 C227.42214681 149.52412613 228.84505224 152.04782069 230.26879883 154.57104492 C231.46615012 156.69309625 232.66259983 158.81565654 233.8581543 160.9387207 C237.442845 167.29159195 241.08538761 173.59068653 244.92578125 179.79296875 C246 182 246 182 246 186 C247.27875 185.835 248.5575 185.67 249.875 185.5 C267.48045547 183.61076761 286.28359506 186.10014444 300.6953125 197.0625 C308.36858292 203.51324937 314.05744421 210.2701364 319 219 C319.78697266 220.37091797 319.78697266 220.37091797 320.58984375 221.76953125 C323.71817672 227.58838977 325.9995176 233.51576197 327.9375 239.8125 C328.16131348 240.51777832 328.38512695 241.22305664 328.61572266 241.94970703 C329.96082215 246.59671335 330.2325911 250.20527961 329 255 C327.33885124 257.58523152 326.12450169 257.95964904 323.1796875 258.9140625 C301.01265193 263.68285739 277.93485335 264.28908648 258 252 C257.70609375 253.34578125 257.70609375 253.34578125 257.40625 254.71875 C253.90099089 269.34414145 247.98549318 281.65094158 238 293 C237.34515625 293.83917969 236.6903125 294.67835938 236.015625 295.54296875 C234.13852667 297.83113707 232.24418776 299.7051675 230 301.625 C229.34 302.19476563 228.68 302.76453125 228 303.3515625 C227.34 303.89554687 226.68 304.43953125 226 305 C225.33871094 305.55429687 224.67742187 306.10859375 223.99609375 306.6796875 C220.82213419 308.77909715 217.61333989 308.73430046 214 308 C211.72703526 306.35210057 210.64173238 305.19539579 209 303 C208.40574219 302.2678125 207.81148438 301.535625 207.19921875 300.78125 C193.93522203 283.6797086 187.28483159 264.62414861 189 243 C190.79479169 229.8265775 198.53238737 216.96770251 207 207 C208.15593115 205.48682743 209.30224176 203.96624353 210.4375 202.4375 C210.93121094 201.77621094 211.42492187 201.11492187 211.93359375 200.43359375 C212.28550781 199.96050781 212.63742187 199.48742187 213 199 C206.82169801 193.27580918 200.57091904 187.75836665 194.00390625 182.48046875 C191.77930454 180.64350895 189.61398748 178.78473941 187.46484375 176.86328125 C164.80519535 156.63092373 143.87337036 149.44280818 113.64453125 149.75 C111.34137947 149.7626936 109.03822249 149.77447414 106.73506165 149.78540039 C82.21190324 149.92862889 57.69215723 150.41470551 33.17443848 150.92712402 C15.14491764 151.30393564 -2.88462497 151.6638316 -20.91584015 151.94995117 C-23.96492855 151.99943087 -27.01391954 152.05322293 -30.06292725 152.10742188 C-34.72321115 152.18769985 -39.38325963 152.24602631 -44.04405785 152.28610229 C-45.73186897 152.30349675 -47.4196258 152.32768516 -49.10723305 152.35916138 C-51.39364131 152.40039124 -53.67884738 152.41653664 -55.96557617 152.42578125 C-57.23680832 152.44036377 -58.50804047 152.45494629 -59.8177948 152.4699707 C-63 152 -63 152 -65.40449524 150.18823242 C-67 148 -67 148 -67.5625 144.5625 C-66.84120601 139.9943047 -65.62428311 138.81986431 -62 136 C-59.03513555 135.47777368 -56.62644716 135.26142342 -53.66040039 135.26464844 C-52.41250024 135.23667647 -52.41250024 135.23667647 -51.13938999 135.20813942 C-48.3753489 135.15200123 -45.61216776 135.13069089 -42.84765625 135.109375 C-40.8945244 135.07650083 -38.94142837 135.04143343 -36.9883728 135.00430298 C-31.76190018 134.91085517 -26.53545282 134.84710148 -21.30848312 134.78905487 C-15.8910051 134.72387311 -10.47399552 134.63161516 -5.05688477 134.54150391 C3.47201922 134.40236865 12.00100182 134.2773428 20.53027344 134.16308594 C29.81560162 134.03759649 39.09896707 133.8723345 48.3828125 133.6640625 C60.921311 133.38463295 73.45932433 133.15595766 86 133 C87.15070984 132.9856189 88.30141968 132.97123779 89.48699951 132.9564209 C96.81540349 132.86902119 104.14354289 132.80590092 111.47238159 132.76983643 C113.78029654 132.75685861 116.08819081 132.73910646 118.39602661 132.71600342 C130.3141415 132.60376365 141.47970687 132.59258936 153 136 C153.77085937 136.21914063 154.54171875 136.43828125 155.3359375 136.6640625 C170.56833279 141.33299592 182.52907693 150.13281892 194.33496094 160.53662109 C197.24257147 163.09207821 200.18559806 165.60625665 203.125 168.125 C203.70902588 168.62700928 204.29305176 169.12901855 204.89477539 169.64624023 C209.39801718 173.50949783 213.97230915 177.2790092 218.578125 181.01953125 C221.7662865 183.62662461 224.8878767 186.30282648 228 189 C228.66 188.67 229.32 188.34 230 188 C229.44054687 187.05125 228.88109375 186.1025 228.3046875 185.125 C225.53190759 180.41933763 222.76516827 175.71013846 220 171 C219.40622559 169.9888916 218.81245117 168.9777832 218.20068359 167.93603516 C216.31906027 164.72949049 214.44044213 161.52120174 212.5625 158.3125 C211.95970215 157.28576172 211.3569043 156.25902344 210.73583984 155.20117188 C203 141.96714984 203 141.96714984 203 137.875 C204.31557676 134.09271681 205.58841036 133.10123197 209 131 C212.09628039 130.39372199 215.1490389 130.38810287 218.29736328 130.37817383 C219.69109917 130.3504464 219.69109917 130.3504464 221.11299133 130.32215881 C224.18209721 130.26552887 227.25083452 130.23635149 230.3203125 130.20703125 C232.46160877 130.17212072 234.60287569 130.13536523 236.74411011 130.09684753 C242.38513683 129.9997956 248.02623169 129.92543446 253.66766357 129.85650635 C261.59259716 129.75563465 269.51709157 129.6242978 277.44161987 129.49601746 C281.6586133 129.42781066 285.87558806 129.36819907 290.09280396 129.31562805 C292.03729308 129.28834207 293.98178163 129.26101564 295.92626953 129.23364258 C296.78588791 129.22482056 297.64550629 129.21599854 298.53117371 129.20690918 C309.54687513 129.52665389 309.54687513 129.52665389 319.6875 126.375 C321.56472444 122.97811768 321.61315246 120.81517087 321 117 C318.19261239 113.99730875 316.51053794 113.07134155 312.41188061 112.49860334 C310.99402785 112.47755448 309.57574618 112.47842833 308.15785408 112.49663544 C307.37077664 112.49082167 306.58369921 112.48500791 305.77277094 112.47901797 C303.12507063 112.4643747 300.47829108 112.47832311 297.83059692 112.49206543 C295.91735829 112.48745821 294.0041232 112.4811065 292.09089553 112.47315645 C286.82528044 112.45641517 281.55995429 112.46473135 276.29433799 112.47710133 C270.61869048 112.48612999 264.94309359 112.47219287 259.26745605 112.46118164 C248.14509355 112.44336779 237.02283884 112.44724937 225.90047206 112.4588322 C216.86221644 112.46785589 207.82399109 112.46909514 198.78573227 112.46473694 C196.85812861 112.46381754 196.85812861 112.46381754 194.89158347 112.46287957 C192.28118324 112.4616007 189.67078303 112.46030385 187.06038283 112.4589892 C163.26368234 112.44790035 139.46704722 112.45941214 115.67035713 112.48035959 C93.94540837 112.49933796 72.2205534 112.49764781 50.49560547 112.47851562 C26.09257208 112.45709685 1.68960254 112.44867798 -22.71344101 112.46096468 C-25.31499425 112.4622389 -27.91654749 112.46349639 -30.51810074 112.46473694 C-31.79818798 112.46535404 -33.07827522 112.46597114 -34.39715298 112.46660694 C-43.42538402 112.47006313 -52.45358182 112.46422562 -61.48180771 112.45481873 C-72.48319406 112.44360819 -83.48446623 112.44661877 -94.48583947 112.4679417 C-100.10084418 112.47846542 -105.71565841 112.48255136 -111.33066177 112.46934509 C-116.46896975 112.45744268 -121.60691035 112.46394846 -126.74518491 112.4852553 C-128.60584386 112.48973052 -130.46653372 112.48743455 -132.32717286 112.47775215 C-134.85394877 112.46561007 -137.37946202 112.47804052 -139.9061718 112.49663544 C-140.63076975 112.48727077 -141.3553677 112.47790611 -142.10192317 112.46825767 C-147.55050562 112.54854913 -150.60035228 114.01434726 -155 117 C-157.79502036 120.89913062 -157.66799267 125.38177907 -157 130 C-154.63609619 134.11494368 -152.44112211 135.57750258 -148 137 C-144.97709726 137.25420718 -144.97709726 137.25420718 -141.71264648 137.14770508 C-140.46462753 137.13141556 -139.21660858 137.11512604 -137.93077087 137.0983429 C-137.2692848 137.0852389 -136.60779873 137.0721349 -135.92626762 137.0586338 C-133.84544226 137.01904319 -131.76495596 136.99478696 -129.68385315 136.97502136 C-123.7700403 136.91712096 -117.85673921 136.83961905 -111.94360352 136.73266602 C-108.31985407 136.66820202 -104.69651149 136.62816543 -101.07228279 136.60349083 C-99.69387127 136.58924351 -98.31552307 136.5656502 -96.93743706 136.53248024 C-95.01135255 136.48674263 -93.08455744 136.47468637 -91.15795898 136.46411133 C-89.51512184 136.43840813 -89.51512184 136.43840813 -87.83909607 136.41218567 C-85 137 -85 137 -82.61122131 139.30693054 C-81 142 -81 142 -81.0625 145.625 C-81.95788657 148.84839166 -82.35106885 150.09276958 -85 152 C-87.31180799 153.155904 -88.7126699 153.15415521 -91.28759766 153.20532227 C-92.17677887 153.22526749 -93.06596008 153.24521271 -93.98208618 153.26576233 C-95.43341446 153.29083107 -95.43341446 153.29083107 -96.9140625 153.31640625 C-97.91649994 153.33718735 -98.91893738 153.35796844 -99.95175171 153.37937927 C-102.08530326 153.42271675 -104.21890265 153.46374941 -106.35253906 153.50268555 C-109.5632679 153.56137165 -112.77380331 153.62667903 -115.984375 153.69335938 C-121.9893381 153.81461984 -127.99440793 153.91564211 -134 154 C-134.83978394 154.01200439 -135.67956787 154.02400879 -136.5447998 154.03637695 C-138.76686526 154.06450581 -140.98874446 154.08347511 -143.2109375 154.09765625 C-145.02150635 154.11131226 -145.02150635 154.11131226 -146.86865234 154.12524414 C-154.86584044 153.80538156 -161.30374257 150.56462123 -167 145 C-173.91895882 136.20088932 -175.21397951 127.9530349 -174 117 C-171.93805561 109.52304278 -167.38134826 104.24250437 -161 100 C-153.13023106 96.15042001 -145.95355084 95.46128758 -137.30273438 95.64453125 C-136.08319061 95.65346909 -134.86364685 95.66240692 -133.60714722 95.6716156 C-130.97516988 95.69231841 -128.34430275 95.71997713 -125.71263123 95.75866699 C-121.53111444 95.81785778 -117.34997624 95.83691951 -113.16809082 95.84863281 C-101.2836684 95.88676785 -89.4001069 95.95700538 -77.51660156 96.11279297 C-70.93637499 96.19872043 -64.35732689 96.24047575 -57.77652597 96.23541355 C-54.3088804 96.23466426 -50.84460632 96.25537314 -47.37773132 96.33169556 C-30.15025091 96.66716369 -18.44991629 95.30775355 -4.77081108 84.35872746 C-2.4170414 82.5527011 0.0931005 81.19483826 2.73828125 79.86328125 C17.59601872 71.76485116 24.01376871 60.07749966 31 45 C27.72471289 42.49943157 24.35201423 40.36440515 20.8125 38.25 C11.29544143 32.46157525 3.17585971 25.53377649 -5 18 C-5.84498047 17.2884375 -5.84498047 17.2884375 -6.70703125 16.5625 C-9.27618464 14.31171432 -10.0476184 12.8333356 -11 9.5 C-11 5.60563686 -10.39624417 4.01749266 -8 1 C-4.98221063 -0.50889469 -3.37677363 -0.50026276 0 0 Z M154.17138672 42.2355957 C144.7752445 45.83649589 135.37520166 48.64549392 125.5859375 50.95703125 C124.44705078 51.2358313 124.44705078 51.2358313 123.28515625 51.52026367 C121 52 121 52 118.65234375 52.20825195 C114.85759494 52.64779969 112.7389444 53.18455018 110.12060547 56.07397461 C108.29990508 58.82866398 106.76070917 61.62691742 105.25 64.5625 C104.693125 65.52736328 104.13625 66.49222656 103.5625 67.48632812 C100.75702148 72.63272096 100.75702148 72.63272096 100.16992188 78.33544922 C100.94201797 80.97024764 100.94201797 80.97024764 103 85 C104.65 88.63 106.3 92.26 108 96 C134.07 96 160.14 96 187 96 C183.61017336 87.521358 183.61017336 87.521358 179.828125 79.27734375 C179.54427948 78.69297546 179.26043396 78.10860718 178.96798706 77.50653076 C178.06499022 75.64870985 177.15748216 73.79313335 176.25 71.9375 C175.00106305 69.37053962 173.75451027 66.80242347 172.5078125 64.234375 C172.20394623 63.60927536 171.90007996 62.98417572 171.58700562 62.34013367 C167.98632235 54.92701619 164.48091955 47.46992364 161 40 C158.63092341 40 156.36460904 41.38816093 154.17138672 42.2355957 Z M47 50 C44.96638835 53.43832633 42.95523327 56.88872898 40.96362305 60.3515625 C40.28373966 61.52659769 39.59792333 62.69822149 38.90600586 63.86621094 C37.90990362 65.55004684 36.9370868 67.24758859 35.96484375 68.9453125 C35.3730835 69.96125488 34.78132324 70.97719727 34.17163086 72.02392578 C32.09858675 77.28969108 34.00612582 81.44943726 36.171875 86.45507812 C36.44515625 87.06802734 36.7184375 87.68097656 37 88.3125 C37.27328125 88.94478516 37.5465625 89.57707031 37.828125 90.22851562 C39.05785362 93.33875014 39.05785362 93.33875014 41 96 C46.79746765 96.84358439 51.62807861 96.8198191 56.484375 93.32421875 C57.92846791 92.13853372 59.34989929 90.92482426 60.75 89.6875 C62.30230228 88.38517248 63.85702835 87.08572899 65.4140625 85.7890625 C66.18008789 85.14227539 66.94611328 84.49548828 67.73535156 83.82910156 C69.83249358 82.13529087 71.95682572 80.62379793 74.2109375 79.1484375 C83.77018406 72.8739743 88.54999951 66.53498519 93 56 C92.35675781 55.95512451 91.71351563 55.91024902 91.05078125 55.86401367 C78.16075184 54.94116296 65.64770257 53.66668428 53 51 C51.00091351 50.66123119 49.0010287 50.3271013 47 50 Z M13.4375 91.4375 C12.42558594 92.07558594 11.41367188 92.71367187 10.37109375 93.37109375 C9.58863281 93.90863281 8.80617187 94.44617188 8 95 C8 95.33 8 95.66 8 96 C12.95 96 17.9 96 23 96 C22.01 93.36 21.02 90.72 20 88 C17.75596815 88 15.23155283 90.29874616 13.4375 91.4375 Z M82.9375 91.9375 C82.20402344 92.48277344 81.47054687 93.02804687 80.71484375 93.58984375 C80.14894531 94.05519531 79.58304688 94.52054687 79 95 C79 95.33 79 95.66 79 96 C82.63 96 86.26 96 90 96 C89.34 93.69 88.68 91.38 88 89 C86.04893237 89 84.42951308 90.81914805 82.9375 91.9375 Z M246 202 C244.83330741 204.84337654 245.02134061 206.07009363 245.93359375 209.06640625 C252.27652497 223.81166194 260.82854264 236.69958634 276.1875 243.03515625 C287.22006703 246.81993966 299.56952635 247.19816801 311 245 C311.495 244.01 311.495 244.01 312 243 C306.97737352 228.57910294 299.03126934 213.99758333 285.18359375 206.46875 C272.3465422 200.71132401 259.71222435 200.25876516 246 202 Z M223.8125 213 C222.87124209 213.99646365 221.93413324 214.99685428 221 216 C220.45988281 216.53496094 219.91976563 217.06992187 219.36328125 217.62109375 C209.7756874 227.63959069 204.46342228 240.88345713 204.76171875 254.68359375 C205.61735403 266.59235363 211.43888748 278.15833122 218 288 C228.21078074 283.71285504 234.89600128 271.14692944 239.09765625 261.47265625 C243.53568821 248.73653663 241.14589609 235.2563011 235.43188477 223.37280273 C232.24870378 216.84589773 232.24870378 216.84589773 228 211 C225.75201353 210.77507693 225.75201353 210.77507693 223.8125 213 Z " fill="#000000" transform="translate(174,204)"></path>
<path d="M0 0 C7.84409998 6.14602341 14.12128501 13.55566223 20.46777344 21.16943359 C22.95119857 24.13640645 25.47724988 27.06647381 28 30 C28.99626788 31.16261122 29.99236131 32.32537196 30.98828125 33.48828125 C33.02397769 35.86359208 35.06344576 38.2355951 37.10546875 40.60546875 C41.69606553 45.93835322 46.25761398 51.28185945 50.6875 56.75 C54.23745321 61.12507747 57.95563821 65.30549192 61.75 69.46875 C64.86932876 72.97799486 67.79749133 76.63162123 70.75 80.28125 C72.93501569 82.92147729 75.19171391 85.4672972 77.5 88 C81.41891252 92.29991791 85.09170869 96.75919547 88.75 101.28125 C90.93501569 103.92147729 93.19171391 106.4672972 95.5 109 C99.41891252 113.29991791 103.09170869 117.75919547 106.75 122.28125 C108.93501569 124.92147729 111.19171391 127.4672972 113.5 130 C117.41891252 134.29991791 121.09170869 138.75919547 124.75 143.28125 C126.93501569 145.92147729 129.19171391 148.4672972 131.5 151 C135.41891252 155.29991791 139.09170869 159.75919547 142.75 164.28125 C144.93501569 166.92147729 147.19171391 169.4672972 149.5 172 C153.41523996 176.29588829 157.08560263 180.74989923 160.73828125 185.26953125 C162.98437935 187.98114191 165.31189213 190.58905455 167.6875 193.1875 C177.75201231 204.34674874 177.75201231 204.34674874 178.5625 209.75 C177.96679422 213.1918556 177.63357152 214.71757135 175 217 C171.61824657 218.10274568 169.86579443 218.42146758 166.6328125 216.84765625 C163.55712882 214.68920168 161.26387898 212.29319886 158.75 209.5 C158.27618896 208.97535156 157.80237793 208.45070312 157.31420898 207.91015625 C153.38176566 203.51898271 149.64415153 198.98667257 145.97265625 194.375 C144.09147784 192.1101357 142.11586019 190.04485817 140 188 C139.1028125 188.38671875 138.205625 188.7734375 137.28125 189.171875 C110.45967221 200.46497973 81.39615612 203.2188197 53.86230469 192.53125 C32.25133945 183.65323185 15.49042392 169.01439537 5.5078125 147.65625 C-2.57870223 128.04749926 -2.72983239 105.09125146 4 85 C5.6054384 81.30688124 5.6054384 81.30688124 7.6875 79.6875 C11.10740423 78.67077171 13.57109774 79.12718851 17 80 C19.63769276 82.21225844 19.94923246 83.59385968 20.375 87 C20.25482842 90.2045754 19.4331345 92.94287364 18.5 96 C13.96028964 113.12119334 16.14376523 131.944386 24.46948242 147.41796875 C34.10380467 163.99866084 51.80904691 174.72079065 69.9375 179.8125 C89.48736151 184.79816793 110.75929256 182.61621357 129 174 C128.31035156 173.26136719 127.62070312 172.52273437 126.91015625 171.76171875 C121.45097264 165.88034264 116.21470049 159.9018878 111.1796875 153.6484375 C109.02242601 151.02724881 106.78689 148.50845719 104.5 146 C100.58108748 141.70008209 96.90829131 137.24080453 93.25 132.71875 C91.06498431 130.07852271 88.80828609 127.5327028 86.5 125 C82.58108748 120.70008209 78.90829131 116.24080453 75.25 111.71875 C73.06498431 109.07852271 70.80828609 106.5327028 68.5 104 C64.58108748 99.70008209 60.90829131 95.24080453 57.25 90.71875 C55.06498431 88.07852271 52.80828609 85.5327028 50.5 83 C46.58108748 78.70008209 42.90829131 74.24080453 39.25 69.71875 C37.06498431 67.07852271 34.80828609 64.5327028 32.5 62 C28.58108748 57.70008209 24.90829131 53.24080453 21.25 48.71875 C19.06498431 46.07852271 16.80828609 43.5327028 14.5 41 C11.36636006 37.56117078 8.36775637 34.05131532 5.4375 30.4375 C4.69242187 29.52484375 3.94734375 28.6121875 3.1796875 27.671875 C1.78213844 25.95875035 0.39091454 24.24043461 -0.9921875 22.515625 C-5.67201376 16.91486908 -10.49421999 13.28979475 -17 10 C-17.59941406 9.6596875 -18.19882813 9.319375 -18.81640625 8.96875 C-27.12542613 4.95365315 -39.47423923 5.75824815 -48.0625 8.625 C-58.8335169 13.27612094 -66.50748358 21.22228031 -71 32 C-76.59015592 46.2548976 -71.25225094 61.00346858 -66.28125 74.578125 C-62.57124673 86.38682986 -61.6017654 98.21182228 -61.5189209 110.50793457 C-61.35051534 131.01973105 -59.86947979 150.69843691 -51.37109375 169.69140625 C-49.57095782 174.035324 -49.46693002 176.3546759 -50 181 C-51.5625 183.5 -51.5625 183.5 -54 185 C-57.5 185.5 -57.5 185.5 -61 185 C-68.64815459 178.79046182 -71.26279206 166.80427253 -73.75 157.625 C-73.94843506 156.90820068 -74.14687012 156.19140137 -74.35131836 155.45288086 C-77.99261219 141.24451181 -78.33354387 126.77587807 -78.45629883 112.20629883 C-78.59607715 98.19006609 -80.4415179 85.58365257 -85.23046875 72.29296875 C-86 70 -86 70 -86 68 C-86.57443848 68.01571045 -87.14887695 68.0314209 -87.74072266 68.04760742 C-90.36871309 68.11035513 -92.99654537 68.14911506 -95.625 68.1875 C-96.52863281 68.21263672 -97.43226562 68.23777344 -98.36328125 68.26367188 C-105.23863416 68.33894946 -109.4277811 67.22146178 -114.75 62.625 C-118.9932669 57.67452195 -119.46707577 53.05482259 -119.296875 46.71484375 C-118.84899 42.61905324 -117.87884234 39.97785014 -115 37 C-111.21162442 34.0966816 -106.959907 31.98914709 -102.70996094 29.84423828 C-91.39329561 24.12912574 -83.6949763 19.9584438 -77 9 C-58.32376147 -13.39598728 -23.37356735 -17.02330192 0 0 Z M-96.5625 45 C-97.57441406 45.556875 -98.58632812 46.11375 -99.62890625 46.6875 C-100.41136719 47.120625 -101.19382812 47.55375 -102 48 C-102 49.32 -102 50.64 -102 52 C-98.04 52 -94.08 52 -90 52 C-90 48.7 -90 45.4 -90 42 C-92.22684337 42 -94.69221738 43.96811993 -96.5625 45 Z " fill="#000000" transform="translate(212,10)"></path>
<path d="M0 0 C1.90625 0.42578125 1.90625 0.42578125 4.40625 2.17578125 C6.72940658 7.20928718 6.62819834 11.98108748 5.90625 17.42578125 C4.40625 20.67578125 4.40625 20.67578125 1.90625 22.42578125 C-0.89546429 23.05157399 -3.32209967 23.21072128 -6.09375 22.42578125 C-8.3125 20.828125 -8.3125 20.828125 -10.09375 18.42578125 C-10.625 15.11328125 -10.625 15.11328125 -10.59375 11.42578125 C-10.6040625 10.20890625 -10.614375 8.99203125 -10.625 7.73828125 C-10.09375 4.42578125 -10.09375 4.42578125 -8.3125 2.0234375 C-5.33979951 -0.1171162 -3.56608992 -0.23286035 0 0 Z " fill="#000000" transform="translate(175.09375,39.57421875)"></path>
</svg>